<mxfile host="65bd71144e">
    <diagram id="F9bwXOmMq7chNWn_p5yu" name="Page-1">
        <mxGraphModel dx="1762" dy="5089" grid="1" gridSize="10" guides="1" tooltips="1" connect="1" arrows="1" fold="1" page="1" pageScale="1" pageWidth="850" pageHeight="1100" math="0" shadow="0">
            <root>
                <mxCell id="0"/>
                <mxCell id="1" parent="0"/>
                <mxCell id="2" value="Mesh" style="rounded=1;whiteSpace=wrap;html=1;verticalAlign=top;align=center;fontSize=18;fillColor=#0050ef;fontColor=#ffffff;strokeColor=#001DBC;dropTarget=1;recursiveResize=0;container=1;" parent="1" vertex="1">
                    <mxGeometry x="80" y="280" width="430" height="280" as="geometry"/>
                </mxCell>
                <mxCell id="3" value="Mesh" style="rounded=1;whiteSpace=wrap;html=1;verticalAlign=top;align=center;fontSize=18;fillColor=#008a00;fontColor=#ffffff;strokeColor=#005700;container=1;dropTarget=1;recursiveResize=0;" parent="2" vertex="1">
                    <mxGeometry x="10" y="40" width="400" height="100" as="geometry"/>
                </mxCell>
                <mxCell id="5" value="Mesh" style="rounded=1;whiteSpace=wrap;html=1;verticalAlign=top;align=center;fontSize=18;fillColor=#d80073;fontColor=#ffffff;strokeColor=#A50040;container=1;dropTarget=1;recursiveResize=0;" parent="3" vertex="1">
                    <mxGeometry x="20" y="30" width="110" height="50" as="geometry"/>
                </mxCell>
                <mxCell id="6" value="Mesh" style="rounded=1;whiteSpace=wrap;html=1;verticalAlign=top;align=center;fontSize=18;fillColor=#d80073;fontColor=#ffffff;strokeColor=#A50040;container=1;dropTarget=1;recursiveResize=0;" parent="3" vertex="1">
                    <mxGeometry x="145" y="30" width="110" height="50" as="geometry"/>
                </mxCell>
                <mxCell id="7" value="Mesh" style="rounded=1;whiteSpace=wrap;html=1;verticalAlign=top;align=center;fontSize=18;fillColor=#d80073;fontColor=#ffffff;strokeColor=#A50040;container=1;dropTarget=1;recursiveResize=0;" parent="3" vertex="1">
                    <mxGeometry x="270" y="30" width="110" height="50" as="geometry"/>
                </mxCell>
                <mxCell id="8" value="Mesh" style="rounded=1;whiteSpace=wrap;html=1;verticalAlign=top;align=center;fontSize=18;fillColor=#008a00;fontColor=#ffffff;strokeColor=#005700;container=1;dropTarget=1;recursiveResize=0;" parent="2" vertex="1">
                    <mxGeometry x="10" y="150" width="400" height="100" as="geometry"/>
                </mxCell>
                <mxCell id="9" value="Mesh" style="rounded=1;whiteSpace=wrap;html=1;verticalAlign=top;align=center;fontSize=18;fillColor=#d80073;fontColor=#ffffff;strokeColor=#A50040;container=1;dropTarget=1;recursiveResize=0;" parent="8" vertex="1">
                    <mxGeometry x="20" y="30" width="110" height="50" as="geometry"/>
                </mxCell>
                <mxCell id="10" value="Mesh" style="rounded=1;whiteSpace=wrap;html=1;verticalAlign=top;align=center;fontSize=18;fillColor=#d80073;fontColor=#ffffff;strokeColor=#A50040;container=1;dropTarget=1;recursiveResize=0;" parent="8" vertex="1">
                    <mxGeometry x="145" y="30" width="110" height="50" as="geometry"/>
                </mxCell>
                <mxCell id="11" value="Mesh" style="rounded=1;whiteSpace=wrap;html=1;verticalAlign=top;align=center;fontSize=18;fillColor=#d80073;fontColor=#ffffff;strokeColor=#A50040;container=1;dropTarget=1;recursiveResize=0;" parent="8" vertex="1">
                    <mxGeometry x="270" y="30" width="110" height="50" as="geometry"/>
                </mxCell>
                <mxCell id="14" style="edgeStyle=none;html=1;exitX=1;exitY=0.5;exitDx=0;exitDy=0;entryX=0;entryY=0.5;entryDx=0;entryDy=0;fontSize=21;" parent="1" source="12" target="13" edge="1">
                    <mxGeometry relative="1" as="geometry"/>
                </mxCell>
                <mxCell id="12" value="Mesh" style="rounded=1;whiteSpace=wrap;html=1;verticalAlign=top;align=center;fontSize=18;fillColor=#d80073;fontColor=#ffffff;strokeColor=#A50040;container=1;dropTarget=1;recursiveResize=0;" parent="1" vertex="1">
                    <mxGeometry x="270" y="40" width="110" height="50" as="geometry"/>
                </mxCell>
                <mxCell id="13" value="&lt;h1 style=&quot;font-size: 21px;&quot;&gt;All these meshes must have hover listen event&lt;/h1&gt;" style="text;html=1;strokeColor=none;fillColor=default;spacing=5;spacingTop=-20;whiteSpace=wrap;overflow=hidden;rounded=0;fontSize=21;fontStyle=0" parent="1" vertex="1">
                    <mxGeometry x="450" y="30" width="290" height="70" as="geometry"/>
                </mxCell>
                <mxCell id="30" style="edgeStyle=none;html=1;exitX=1;exitY=0.5;exitDx=0;exitDy=0;entryX=0;entryY=0.5;entryDx=0;entryDy=0;fontSize=21;" parent="1" source="15" target="19" edge="1">
                    <mxGeometry relative="1" as="geometry"/>
                </mxCell>
                <mxCell id="15" value="Mesh" style="rounded=1;whiteSpace=wrap;html=1;verticalAlign=top;align=center;fontSize=18;fillColor=#008a00;fontColor=#ffffff;strokeColor=#005700;container=1;dropTarget=1;recursiveResize=0;" parent="1" vertex="1">
                    <mxGeometry x="270" y="110" width="110" height="50" as="geometry"/>
                </mxCell>
                <mxCell id="19" value="&lt;h1 style=&quot;font-size: 21px;&quot;&gt;These meshes don't need hover event&lt;/h1&gt;" style="text;html=1;strokeColor=none;fillColor=default;spacing=5;spacingTop=-20;whiteSpace=wrap;overflow=hidden;rounded=0;fontSize=21;fontStyle=0" parent="1" vertex="1">
                    <mxGeometry x="450" y="100" width="290" height="70" as="geometry"/>
                </mxCell>
                <mxCell id="31" style="edgeStyle=none;html=1;exitX=1;exitY=0.5;exitDx=0;exitDy=0;entryX=0;entryY=0.5;entryDx=0;entryDy=0;fontSize=21;" parent="1" source="20" target="29" edge="1">
                    <mxGeometry relative="1" as="geometry"/>
                </mxCell>
                <mxCell id="20" value="Mesh" style="rounded=1;whiteSpace=wrap;html=1;verticalAlign=top;align=center;fontSize=18;fillColor=#0050ef;fontColor=#ffffff;strokeColor=#001DBC;dropTarget=1;recursiveResize=0;container=1;" parent="1" vertex="1">
                    <mxGeometry x="270" y="180" width="110" height="50" as="geometry"/>
                </mxCell>
                <mxCell id="29" value="&lt;h1 style=&quot;font-size: 21px;&quot;&gt;These meshes don't need hover event&lt;/h1&gt;" style="text;html=1;strokeColor=none;fillColor=default;spacing=5;spacingTop=-20;whiteSpace=wrap;overflow=hidden;rounded=0;fontSize=21;fontStyle=0" parent="1" vertex="1">
                    <mxGeometry x="450" y="170" width="290" height="70" as="geometry"/>
                </mxCell>
                <mxCell id="32" value="Mesh" style="rounded=1;whiteSpace=wrap;html=1;verticalAlign=top;align=center;fontSize=18;fillColor=#0050ef;fontColor=#ffffff;strokeColor=#001DBC;dropTarget=1;recursiveResize=0;container=1;" parent="1" vertex="1">
                    <mxGeometry x="80" y="590" width="430" height="280" as="geometry"/>
                </mxCell>
                <mxCell id="33" value="Mesh" style="rounded=1;whiteSpace=wrap;html=1;verticalAlign=top;align=center;fontSize=18;fillColor=#008a00;fontColor=#ffffff;strokeColor=#005700;container=1;dropTarget=1;recursiveResize=0;" parent="32" vertex="1">
                    <mxGeometry x="10" y="40" width="180" height="100" as="geometry"/>
                </mxCell>
                <mxCell id="34" value="Mesh" style="rounded=1;whiteSpace=wrap;html=1;verticalAlign=top;align=center;fontSize=18;fillColor=#d80073;fontColor=#ffffff;strokeColor=#A50040;container=1;dropTarget=1;recursiveResize=0;" parent="33" vertex="1">
                    <mxGeometry x="20" y="30" width="110" height="50" as="geometry"/>
                </mxCell>
                <mxCell id="37" value="Mesh" style="rounded=1;whiteSpace=wrap;html=1;verticalAlign=top;align=center;fontSize=18;fillColor=#008a00;fontColor=#ffffff;strokeColor=#005700;container=1;dropTarget=1;recursiveResize=0;" parent="32" vertex="1">
                    <mxGeometry x="10" y="150" width="180" height="100" as="geometry"/>
                </mxCell>
                <mxCell id="38" value="Mesh" style="rounded=1;whiteSpace=wrap;html=1;verticalAlign=top;align=center;fontSize=18;fillColor=#d80073;fontColor=#ffffff;strokeColor=#A50040;container=1;dropTarget=1;recursiveResize=0;" parent="37" vertex="1">
                    <mxGeometry x="20" y="30" width="110" height="50" as="geometry"/>
                </mxCell>
                <mxCell id="59" value="2*3=6" style="ellipse;whiteSpace=wrap;html=1;fontSize=21;fillColor=default;" parent="1" vertex="1">
                    <mxGeometry x="2080" y="286.5" width="90" height="60" as="geometry"/>
                </mxCell>
                <mxCell id="61" value="&lt;h1 style=&quot;font-size: 21px;&quot;&gt;If we set all&lt;/h1&gt;" style="text;html=1;strokeColor=none;fillColor=default;spacing=5;spacingTop=-20;whiteSpace=wrap;overflow=hidden;rounded=0;fontSize=21;fontStyle=0;container=1;dropTarget=1;recursiveResize=0;" parent="1" vertex="1">
                    <mxGeometry x="560" y="410" width="240" height="75" as="geometry"/>
                </mxCell>
                <mxCell id="69" value="Mesh" style="rounded=1;whiteSpace=wrap;html=1;verticalAlign=top;align=center;fontSize=18;fillColor=#008a00;fontColor=#ffffff;strokeColor=#005700;container=1;dropTarget=1;recursiveResize=0;" parent="61" vertex="1">
                    <mxGeometry x="120" y="12.5" width="110" height="50" as="geometry"/>
                </mxCell>
                <mxCell id="89" style="edgeStyle=none;html=1;exitX=1;exitY=0.5;exitDx=0;exitDy=0;entryX=0;entryY=0.5;entryDx=0;entryDy=0;strokeWidth=3;fontSize=21;" parent="1" source="65" target="73" edge="1">
                    <mxGeometry relative="1" as="geometry">
                        <mxPoint x="1400" y="447" as="targetPoint"/>
                    </mxGeometry>
                </mxCell>
                <mxCell id="65" value="&lt;h1 style=&quot;font-size: 21px;&quot;&gt;to have a listener, then the count of checkings in the worst case scenario would be the number of the&amp;nbsp;&lt;/h1&gt;" style="text;html=1;strokeColor=none;fillColor=default;spacing=5;spacingTop=-20;whiteSpace=wrap;overflow=hidden;rounded=0;fontSize=21;fontStyle=0;container=1;dropTarget=1;recursiveResize=0;" parent="1" vertex="1">
                    <mxGeometry x="910" y="392.5" width="440" height="110" as="geometry"/>
                </mxCell>
                <mxCell id="70" value="Mesh" style="rounded=1;whiteSpace=wrap;html=1;verticalAlign=top;align=center;fontSize=18;fillColor=#008a00;fontColor=#ffffff;strokeColor=#005700;container=1;dropTarget=1;recursiveResize=0;" parent="65" vertex="1">
                    <mxGeometry x="300" y="55" width="110" height="50" as="geometry"/>
                </mxCell>
                <mxCell id="90" style="edgeStyle=none;html=1;exitX=1;exitY=0.5;exitDx=0;exitDy=0;entryX=0;entryY=0.5;entryDx=0;entryDy=0;strokeWidth=3;fontSize=21;" parent="1" source="73" target="75" edge="1">
                    <mxGeometry relative="1" as="geometry"/>
                </mxCell>
                <mxCell id="73" value="&lt;h1 style=&quot;font-size: 21px;&quot;&gt;Tthe number of&lt;/h1&gt;" style="text;html=1;strokeColor=none;fillColor=default;spacing=5;spacingTop=-20;whiteSpace=wrap;overflow=hidden;rounded=0;fontSize=21;fontStyle=0;container=1;dropTarget=1;recursiveResize=0;" parent="1" vertex="1">
                    <mxGeometry x="1400" y="405.5" width="310" height="85" as="geometry"/>
                </mxCell>
                <mxCell id="74" value="Mesh" style="rounded=1;whiteSpace=wrap;html=1;verticalAlign=top;align=center;fontSize=18;fillColor=#d80073;fontColor=#ffffff;strokeColor=#A50040;container=1;dropTarget=1;recursiveResize=0;" parent="73" vertex="1">
                    <mxGeometry x="180" y="15" width="110" height="50" as="geometry"/>
                </mxCell>
                <mxCell id="91" style="edgeStyle=none;html=1;exitX=1;exitY=0.5;exitDx=0;exitDy=0;entryX=0;entryY=0.5;entryDx=0;entryDy=0;strokeWidth=3;fontSize=21;" parent="1" source="75" target="77" edge="1">
                    <mxGeometry relative="1" as="geometry"/>
                </mxCell>
                <mxCell id="75" value="&lt;h1 style=&quot;font-size: 21px;&quot;&gt;in each&lt;/h1&gt;" style="text;html=1;strokeColor=none;fillColor=default;spacing=5;spacingTop=-20;whiteSpace=wrap;overflow=hidden;rounded=0;fontSize=21;fontStyle=0;dropTarget=1;container=1;recursiveResize=0;" parent="1" vertex="1">
                    <mxGeometry x="1750" y="400" width="230" height="95" as="geometry"/>
                </mxCell>
                <mxCell id="76" value="Mesh" style="rounded=1;whiteSpace=wrap;html=1;verticalAlign=top;align=center;fontSize=18;fillColor=#008a00;fontColor=#ffffff;strokeColor=#005700;container=1;dropTarget=1;recursiveResize=0;" parent="75" vertex="1">
                    <mxGeometry x="100" y="5" width="110" height="50" as="geometry"/>
                </mxCell>
                <mxCell id="77" value="2+3 = 5" style="ellipse;whiteSpace=wrap;html=1;fontSize=21;fillColor=default;" parent="1" vertex="1">
                    <mxGeometry x="2020" y="418" width="190" height="60" as="geometry"/>
                </mxCell>
                <mxCell id="78" value="&lt;h1 style=&quot;font-size: 21px;&quot;&gt;If we set all&lt;/h1&gt;" style="text;html=1;strokeColor=none;fillColor=default;spacing=5;spacingTop=-20;whiteSpace=wrap;overflow=hidden;rounded=0;fontSize=21;fontStyle=0;container=1;dropTarget=1;recursiveResize=0;" parent="1" vertex="1">
                    <mxGeometry x="560" y="279" width="240" height="75" as="geometry"/>
                </mxCell>
                <mxCell id="54" value="Mesh" style="rounded=1;whiteSpace=wrap;html=1;verticalAlign=top;align=center;fontSize=18;fillColor=#d80073;fontColor=#ffffff;strokeColor=#A50040;container=1;dropTarget=1;recursiveResize=0;" parent="78" vertex="1">
                    <mxGeometry x="120" y="10" width="110" height="50" as="geometry"/>
                </mxCell>
                <mxCell id="84" style="edgeStyle=none;html=1;exitX=1;exitY=0.5;exitDx=0;exitDy=0;entryX=0;entryY=0.5;entryDx=0;entryDy=0;strokeWidth=3;fontSize=21;" parent="1" source="54" target="86" edge="1">
                    <mxGeometry relative="1" as="geometry">
                        <mxPoint x="910" y="316.5" as="targetPoint"/>
                    </mxGeometry>
                </mxCell>
                <mxCell id="85" style="edgeStyle=none;html=1;exitX=1;exitY=0.5;exitDx=0;exitDy=0;entryX=0;entryY=0.5;entryDx=0;entryDy=0;strokeWidth=3;fontSize=21;" parent="1" source="69" target="65" edge="1">
                    <mxGeometry relative="1" as="geometry"/>
                </mxCell>
                <mxCell id="88" style="edgeStyle=none;html=1;exitX=1;exitY=0.5;exitDx=0;exitDy=0;entryX=0;entryY=0.5;entryDx=0;entryDy=0;strokeWidth=3;fontSize=21;" parent="1" source="86" target="59" edge="1">
                    <mxGeometry relative="1" as="geometry"/>
                </mxCell>
                <mxCell id="86" value="&lt;h1 style=&quot;font-size: 21px;&quot;&gt;to have a listener, then the count of checkings in the worst case scenario would be the number of the&amp;nbsp;&lt;/h1&gt;" style="text;html=1;strokeColor=none;fillColor=default;spacing=5;spacingTop=-20;whiteSpace=wrap;overflow=hidden;rounded=0;fontSize=21;fontStyle=0;container=1;dropTarget=1;recursiveResize=0;" parent="1" vertex="1">
                    <mxGeometry x="910" y="260" width="440" height="110" as="geometry"/>
                </mxCell>
                <mxCell id="58" value="Mesh" style="rounded=1;whiteSpace=wrap;html=1;verticalAlign=top;align=center;fontSize=18;fillColor=#d80073;fontColor=#ffffff;strokeColor=#A50040;container=1;dropTarget=1;recursiveResize=0;" parent="86" vertex="1">
                    <mxGeometry x="300" y="60" width="110" height="50" as="geometry"/>
                </mxCell>
                <mxCell id="93" value="&lt;h1 style=&quot;font-size: 21px;&quot;&gt;Worst case scenario is&lt;/h1&gt;&lt;div&gt;&lt;br&gt;&lt;/div&gt;&lt;div&gt;&lt;br&gt;&lt;/div&gt;&lt;div&gt;&lt;br&gt;&lt;/div&gt;" style="text;html=1;strokeColor=#BD7000;fillColor=#f0a30a;spacing=5;spacingTop=-20;whiteSpace=wrap;overflow=hidden;rounded=0;fontSize=21;fontStyle=0;container=1;dropTarget=1;recursiveResize=0;fontColor=#FFFFFF;" parent="1" vertex="1">
                    <mxGeometry x="2520" y="319.5" width="320" height="158.5" as="geometry"/>
                </mxCell>
                <mxCell id="95" value="Mesh" style="rounded=1;whiteSpace=wrap;html=1;verticalAlign=top;align=center;fontSize=18;fillColor=#d80073;fontColor=#ffffff;strokeColor=#A50040;container=1;dropTarget=1;recursiveResize=0;" parent="93" vertex="1">
                    <mxGeometry x="120" y="58.5" width="110" height="55" as="geometry"/>
                </mxCell>
                <mxCell id="96" value="n" style="ellipse;whiteSpace=wrap;html=1;fontSize=21;fillColor=default;" parent="93" vertex="1">
                    <mxGeometry x="20" y="56" width="60" height="60" as="geometry"/>
                </mxCell>
                <mxCell id="97" value="&lt;h1 style=&quot;font-size: 21px;&quot;&gt;Worst case scenario is&lt;/h1&gt;&lt;div&gt;&lt;br&gt;&lt;/div&gt;&lt;div&gt;&lt;br&gt;&lt;/div&gt;&lt;div&gt;&lt;br&gt;&lt;/div&gt;" style="text;html=1;strokeColor=#C73500;fillColor=#fa6800;spacing=5;spacingTop=-20;whiteSpace=wrap;overflow=hidden;rounded=0;fontSize=21;fontStyle=0;container=1;dropTarget=1;recursiveResize=0;fontColor=#FFFFFF;" parent="1" vertex="1">
                    <mxGeometry x="2520" y="500" width="320" height="306" as="geometry"/>
                </mxCell>
                <mxCell id="99" value="n *" style="ellipse;whiteSpace=wrap;html=1;fontSize=21;fillColor=default;" parent="97" vertex="1">
                    <mxGeometry x="20" y="56" width="60" height="60" as="geometry"/>
                </mxCell>
                <mxCell id="103" value="n *" style="ellipse;whiteSpace=wrap;html=1;fontSize=21;fillColor=default;" parent="97" vertex="1">
                    <mxGeometry x="20" y="206" width="60" height="60" as="geometry"/>
                </mxCell>
                <mxCell id="104" value="+" style="ellipse;whiteSpace=wrap;html=1;fontSize=21;fillColor=default;" parent="97" vertex="1">
                    <mxGeometry x="130" y="136" width="60" height="60" as="geometry"/>
                </mxCell>
                <mxCell id="101" value="&lt;h1 style=&quot;font-size: 21px;&quot;&gt;in&amp;nbsp;&lt;/h1&gt;" style="text;html=1;strokeColor=none;fillColor=default;spacing=5;spacingTop=-20;whiteSpace=wrap;overflow=hidden;rounded=0;fontSize=21;fontStyle=0;dropTarget=1;container=1;recursiveResize=0;" parent="97" vertex="1">
                    <mxGeometry x="120" y="46" width="180" height="80" as="geometry"/>
                </mxCell>
                <mxCell id="102" value="Mesh" style="rounded=1;whiteSpace=wrap;html=1;verticalAlign=top;align=center;fontSize=18;fillColor=#008a00;fontColor=#ffffff;strokeColor=#005700;container=1;dropTarget=1;recursiveResize=0;" parent="101" vertex="1">
                    <mxGeometry x="40" y="10" width="110" height="50" as="geometry"/>
                </mxCell>
                <mxCell id="105" value="&lt;h1 style=&quot;font-size: 21px;&quot;&gt;in&amp;nbsp;&lt;/h1&gt;" style="text;html=1;strokeColor=none;fillColor=default;spacing=5;spacingTop=-20;whiteSpace=wrap;overflow=hidden;rounded=0;fontSize=21;fontStyle=0;dropTarget=1;container=1;recursiveResize=0;" parent="97" vertex="1">
                    <mxGeometry x="100" y="206" width="180" height="80" as="geometry"/>
                </mxCell>
                <mxCell id="107" value="Mesh" style="rounded=1;whiteSpace=wrap;html=1;verticalAlign=top;align=center;fontSize=18;fillColor=#d80073;fontColor=#ffffff;strokeColor=#A50040;container=1;dropTarget=1;recursiveResize=0;" parent="105" vertex="1">
                    <mxGeometry x="50" y="2.5" width="110" height="55" as="geometry"/>
                </mxCell>
                <mxCell id="108" value="2*1=2" style="ellipse;whiteSpace=wrap;html=1;fontSize=21;fillColor=default;" parent="1" vertex="1">
                    <mxGeometry x="2075" y="626.5" width="105" height="60" as="geometry"/>
                </mxCell>
                <mxCell id="109" value="&lt;h1 style=&quot;font-size: 21px;&quot;&gt;If we set all&lt;/h1&gt;" style="text;html=1;strokeColor=none;fillColor=default;spacing=5;spacingTop=-20;whiteSpace=wrap;overflow=hidden;rounded=0;fontSize=21;fontStyle=0;container=1;dropTarget=1;recursiveResize=0;" parent="1" vertex="1">
                    <mxGeometry x="555" y="750" width="240" height="75" as="geometry"/>
                </mxCell>
                <mxCell id="110" value="Mesh" style="rounded=1;whiteSpace=wrap;html=1;verticalAlign=top;align=center;fontSize=18;fillColor=#008a00;fontColor=#ffffff;strokeColor=#005700;container=1;dropTarget=1;recursiveResize=0;" parent="109" vertex="1">
                    <mxGeometry x="120" y="12.5" width="110" height="50" as="geometry"/>
                </mxCell>
                <mxCell id="111" style="edgeStyle=none;html=1;exitX=1;exitY=0.5;exitDx=0;exitDy=0;entryX=0;entryY=0.5;entryDx=0;entryDy=0;strokeWidth=3;fontSize=21;" parent="1" source="112" target="115" edge="1">
                    <mxGeometry relative="1" as="geometry">
                        <mxPoint x="1395" y="787" as="targetPoint"/>
                    </mxGeometry>
                </mxCell>
                <mxCell id="112" value="&lt;h1 style=&quot;font-size: 21px;&quot;&gt;to have a listener, then the count of checkings in the worst case scenario would be the number of the&amp;nbsp;&lt;/h1&gt;" style="text;html=1;strokeColor=none;fillColor=default;spacing=5;spacingTop=-20;whiteSpace=wrap;overflow=hidden;rounded=0;fontSize=21;fontStyle=0;container=1;dropTarget=1;recursiveResize=0;" parent="1" vertex="1">
                    <mxGeometry x="905" y="732.5" width="440" height="110" as="geometry"/>
                </mxCell>
                <mxCell id="113" value="Mesh" style="rounded=1;whiteSpace=wrap;html=1;verticalAlign=top;align=center;fontSize=18;fillColor=#008a00;fontColor=#ffffff;strokeColor=#005700;container=1;dropTarget=1;recursiveResize=0;" parent="112" vertex="1">
                    <mxGeometry x="300" y="55" width="110" height="50" as="geometry"/>
                </mxCell>
                <mxCell id="114" style="edgeStyle=none;html=1;exitX=1;exitY=0.5;exitDx=0;exitDy=0;entryX=0;entryY=0.5;entryDx=0;entryDy=0;strokeWidth=3;fontSize=21;" parent="1" source="115" target="118" edge="1">
                    <mxGeometry relative="1" as="geometry"/>
                </mxCell>
                <mxCell id="115" value="&lt;h1 style=&quot;font-size: 21px;&quot;&gt;Tthe number of&lt;/h1&gt;" style="text;html=1;strokeColor=none;fillColor=default;spacing=5;spacingTop=-20;whiteSpace=wrap;overflow=hidden;rounded=0;fontSize=21;fontStyle=0;container=1;dropTarget=1;recursiveResize=0;" parent="1" vertex="1">
                    <mxGeometry x="1395" y="745.5" width="310" height="85" as="geometry"/>
                </mxCell>
                <mxCell id="116" value="Mesh" style="rounded=1;whiteSpace=wrap;html=1;verticalAlign=top;align=center;fontSize=18;fillColor=#d80073;fontColor=#ffffff;strokeColor=#A50040;container=1;dropTarget=1;recursiveResize=0;" parent="115" vertex="1">
                    <mxGeometry x="180" y="15" width="110" height="50" as="geometry"/>
                </mxCell>
                <mxCell id="117" style="edgeStyle=none;html=1;exitX=1;exitY=0.5;exitDx=0;exitDy=0;entryX=0;entryY=0.5;entryDx=0;entryDy=0;strokeWidth=3;fontSize=21;" parent="1" source="118" target="120" edge="1">
                    <mxGeometry relative="1" as="geometry"/>
                </mxCell>
                <mxCell id="118" value="&lt;h1 style=&quot;font-size: 21px;&quot;&gt;in each&lt;/h1&gt;" style="text;html=1;strokeColor=none;fillColor=default;spacing=5;spacingTop=-20;whiteSpace=wrap;overflow=hidden;rounded=0;fontSize=21;fontStyle=0;dropTarget=1;container=1;recursiveResize=0;" parent="1" vertex="1">
                    <mxGeometry x="1745" y="740" width="230" height="95" as="geometry"/>
                </mxCell>
                <mxCell id="119" value="Mesh" style="rounded=1;whiteSpace=wrap;html=1;verticalAlign=top;align=center;fontSize=18;fillColor=#008a00;fontColor=#ffffff;strokeColor=#005700;container=1;dropTarget=1;recursiveResize=0;" parent="118" vertex="1">
                    <mxGeometry x="100" y="5" width="110" height="50" as="geometry"/>
                </mxCell>
                <mxCell id="120" value="2+1 = 3" style="ellipse;whiteSpace=wrap;html=1;fontSize=21;fillColor=default;" parent="1" vertex="1">
                    <mxGeometry x="2015" y="758" width="190" height="60" as="geometry"/>
                </mxCell>
                <mxCell id="121" value="&lt;h1 style=&quot;font-size: 21px;&quot;&gt;If we set all&lt;/h1&gt;" style="text;html=1;strokeColor=none;fillColor=default;spacing=5;spacingTop=-20;whiteSpace=wrap;overflow=hidden;rounded=0;fontSize=21;fontStyle=0;container=1;dropTarget=1;recursiveResize=0;" parent="1" vertex="1">
                    <mxGeometry x="555" y="619" width="240" height="75" as="geometry"/>
                </mxCell>
                <mxCell id="122" value="Mesh" style="rounded=1;whiteSpace=wrap;html=1;verticalAlign=top;align=center;fontSize=18;fillColor=#d80073;fontColor=#ffffff;strokeColor=#A50040;container=1;dropTarget=1;recursiveResize=0;" parent="121" vertex="1">
                    <mxGeometry x="120" y="10" width="110" height="50" as="geometry"/>
                </mxCell>
                <mxCell id="123" style="edgeStyle=none;html=1;exitX=1;exitY=0.5;exitDx=0;exitDy=0;entryX=0;entryY=0.5;entryDx=0;entryDy=0;strokeWidth=3;fontSize=21;" parent="1" source="122" target="126" edge="1">
                    <mxGeometry relative="1" as="geometry">
                        <mxPoint x="905" y="656.5" as="targetPoint"/>
                    </mxGeometry>
                </mxCell>
                <mxCell id="124" style="edgeStyle=none;html=1;exitX=1;exitY=0.5;exitDx=0;exitDy=0;entryX=0;entryY=0.5;entryDx=0;entryDy=0;strokeWidth=3;fontSize=21;" parent="1" source="110" target="112" edge="1">
                    <mxGeometry relative="1" as="geometry"/>
                </mxCell>
                <mxCell id="125" style="edgeStyle=none;html=1;exitX=1;exitY=0.5;exitDx=0;exitDy=0;entryX=0;entryY=0.5;entryDx=0;entryDy=0;strokeWidth=3;fontSize=21;" parent="1" source="126" target="108" edge="1">
                    <mxGeometry relative="1" as="geometry"/>
                </mxCell>
                <mxCell id="126" value="&lt;h1 style=&quot;font-size: 21px;&quot;&gt;to have a listener, then the count of checkings in the worst case scenario would be the number of the&amp;nbsp;&lt;/h1&gt;" style="text;html=1;strokeColor=none;fillColor=default;spacing=5;spacingTop=-20;whiteSpace=wrap;overflow=hidden;rounded=0;fontSize=21;fontStyle=0;container=1;dropTarget=1;recursiveResize=0;" parent="1" vertex="1">
                    <mxGeometry x="905" y="600" width="440" height="110" as="geometry"/>
                </mxCell>
                <mxCell id="127" value="Mesh" style="rounded=1;whiteSpace=wrap;html=1;verticalAlign=top;align=center;fontSize=18;fillColor=#d80073;fontColor=#ffffff;strokeColor=#A50040;container=1;dropTarget=1;recursiveResize=0;" parent="126" vertex="1">
                    <mxGeometry x="300" y="60" width="110" height="50" as="geometry"/>
                </mxCell>
                <mxCell id="137" value="&lt;h1 style=&quot;font-size: 21px;&quot;&gt;Conclusion.&lt;/h1&gt;&lt;div&gt;&lt;br&gt;&lt;/div&gt;&lt;div&gt;If the inner meshes are only childs,&lt;/div&gt;&lt;div&gt;then the worst cace for the secont approach&amp;nbsp;&lt;/div&gt;&lt;div&gt;is +1. In any other case, the secont aproach&amp;nbsp;&lt;/div&gt;&lt;div&gt;is faster.&lt;/div&gt;" style="text;html=1;strokeColor=none;fillColor=default;spacing=5;spacingTop=-20;whiteSpace=wrap;overflow=hidden;rounded=0;fontSize=21;fontStyle=0;dropTarget=1;container=1;recursiveResize=0;" parent="1" vertex="1">
                    <mxGeometry x="1705" y="1040" width="725" height="220" as="geometry"/>
                </mxCell>
                <mxCell id="139" value="Mesh" style="rounded=1;whiteSpace=wrap;html=1;verticalAlign=top;align=center;fontSize=18;fillColor=#d80073;fontColor=#ffffff;strokeColor=#A50040;container=1;dropTarget=1;recursiveResize=0;" parent="137" vertex="1">
                    <mxGeometry x="465" y="60" width="110" height="50" as="geometry"/>
                </mxCell>
                <mxCell id="138" value="Mesh" style="rounded=1;whiteSpace=wrap;html=1;verticalAlign=top;align=center;fontSize=18;fillColor=#008a00;fontColor=#ffffff;strokeColor=#005700;container=1;dropTarget=1;recursiveResize=0;" parent="1" vertex="1">
                    <mxGeometry x="2200" y="880" width="110" height="50" as="geometry"/>
                </mxCell>
                <mxCell id="140" value="&lt;h1 style=&quot;&quot;&gt;&lt;font style=&quot;font-size: 35px;&quot;&gt;New Event Listener Tree children Structure&lt;/font&gt;&lt;/h1&gt;" style="text;html=1;strokeColor=none;fillColor=#666666;spacing=5;spacingTop=-20;whiteSpace=wrap;overflow=hidden;rounded=0;fontSize=21;fontStyle=0" parent="1" vertex="1">
                    <mxGeometry x="690" y="-2180" width="460" height="150" as="geometry"/>
                </mxCell>
                <mxCell id="145" value="EventListeners Buffer" style="rounded=1;whiteSpace=wrap;html=1;verticalAlign=top;align=center;fontSize=18;fillColor=#008a00;fontColor=#ffffff;strokeColor=#005700;container=1;dropTarget=1;recursiveResize=0;" parent="1" vertex="1">
                    <mxGeometry x="1110" y="-1720" width="230" height="280" as="geometry"/>
                </mxCell>
                <mxCell id="148" value="Event" style="rounded=1;whiteSpace=wrap;html=1;verticalAlign=top;align=center;fontSize=18;fillColor=#d80073;fontColor=#ffffff;strokeColor=#A50040;container=1;dropTarget=1;recursiveResize=0;" parent="145" vertex="1">
                    <mxGeometry x="60" y="40" width="110" height="30" as="geometry"/>
                </mxCell>
                <mxCell id="156" value="Event" style="rounded=1;whiteSpace=wrap;html=1;verticalAlign=top;align=center;fontSize=18;fillColor=#d80073;fontColor=#ffffff;strokeColor=#A50040;container=1;dropTarget=1;recursiveResize=0;" parent="145" vertex="1">
                    <mxGeometry x="60" y="80" width="110" height="30" as="geometry"/>
                </mxCell>
                <mxCell id="157" value="Event" style="rounded=1;whiteSpace=wrap;html=1;verticalAlign=top;align=center;fontSize=18;fillColor=#d80073;fontColor=#ffffff;strokeColor=#A50040;container=1;dropTarget=1;recursiveResize=0;" parent="145" vertex="1">
                    <mxGeometry x="60" y="120" width="110" height="30" as="geometry"/>
                </mxCell>
                <mxCell id="158" value="Event" style="rounded=1;whiteSpace=wrap;html=1;verticalAlign=top;align=center;fontSize=18;fillColor=#d80073;fontColor=#ffffff;strokeColor=#A50040;container=1;dropTarget=1;recursiveResize=0;" parent="145" vertex="1">
                    <mxGeometry x="60" y="160" width="110" height="30" as="geometry"/>
                </mxCell>
                <mxCell id="159" value="Event" style="rounded=1;whiteSpace=wrap;html=1;verticalAlign=top;align=center;fontSize=18;fillColor=#d80073;fontColor=#ffffff;strokeColor=#A50040;container=1;dropTarget=1;recursiveResize=0;" parent="145" vertex="1">
                    <mxGeometry x="60" y="200" width="110" height="30" as="geometry"/>
                </mxCell>
                <mxCell id="160" value="Event" style="rounded=1;whiteSpace=wrap;html=1;verticalAlign=top;align=center;fontSize=18;fillColor=#d80073;fontColor=#ffffff;strokeColor=#A50040;container=1;dropTarget=1;recursiveResize=0;" parent="145" vertex="1">
                    <mxGeometry x="60" y="240" width="110" height="30" as="geometry"/>
                </mxCell>
                <mxCell id="170" style="edgeStyle=none;html=1;entryX=0;entryY=0.5;entryDx=0;entryDy=0;fontColor=#FFFFFF;fontSize=14;strokeWidth=4;exitX=1;exitY=0.5;exitDx=0;exitDy=0;startArrow=oval;startFill=1;" parent="1" source="161" target="148" edge="1">
                    <mxGeometry relative="1" as="geometry"/>
                </mxCell>
                <mxCell id="161" value="Mesh" style="rounded=1;whiteSpace=wrap;html=1;verticalAlign=top;align=center;fontSize=18;fillColor=#0050ef;fontColor=#ffffff;strokeColor=#001DBC;dropTarget=1;recursiveResize=0;container=1;" parent="1" vertex="1">
                    <mxGeometry x="460" y="-1860" width="470" height="400" as="geometry"/>
                </mxCell>
                <mxCell id="162" value="Mesh" style="rounded=1;whiteSpace=wrap;html=1;verticalAlign=top;align=center;fontSize=18;fillColor=#fa6800;fontColor=#FFFFFF;strokeColor=#C73500;container=1;dropTarget=1;recursiveResize=0;" parent="161" vertex="1">
                    <mxGeometry x="55" y="40" width="375" height="80" as="geometry"/>
                </mxCell>
                <mxCell id="165" value="Mesh" style="rounded=1;whiteSpace=wrap;html=1;verticalAlign=top;align=center;fontSize=18;fillColor=#fa6800;fontColor=#FFFFFF;strokeColor=#C73500;container=1;dropTarget=1;recursiveResize=0;" parent="161" vertex="1">
                    <mxGeometry x="60" y="140" width="375" height="80" as="geometry"/>
                </mxCell>
                <mxCell id="166" value="Mesh" style="rounded=1;whiteSpace=wrap;html=1;verticalAlign=top;align=center;fontSize=18;fillColor=#fa6800;fontColor=#FFFFFF;strokeColor=#C73500;container=1;dropTarget=1;recursiveResize=0;" parent="161" vertex="1">
                    <mxGeometry x="55" y="250" width="375" height="80" as="geometry"/>
                </mxCell>
                <mxCell id="169" style="edgeStyle=none;html=1;exitX=1;exitY=0.5;exitDx=0;exitDy=0;fontColor=#FFFFFF;entryX=0;entryY=0.5;entryDx=0;entryDy=0;strokeWidth=3;" parent="1" source="162" target="156" edge="1">
                    <mxGeometry relative="1" as="geometry">
                        <mxPoint x="990" y="-1790" as="targetPoint"/>
                    </mxGeometry>
                </mxCell>
                <mxCell id="171" style="edgeStyle=none;html=1;exitX=1;exitY=0.5;exitDx=0;exitDy=0;entryX=0;entryY=0.5;entryDx=0;entryDy=0;strokeWidth=3;fontSize=14;fontColor=#FFFFFF;" parent="1" source="165" target="157" edge="1">
                    <mxGeometry relative="1" as="geometry"/>
                </mxCell>
                <mxCell id="172" style="edgeStyle=none;html=1;entryX=0;entryY=0.5;entryDx=0;entryDy=0;strokeWidth=3;fontSize=14;fontColor=#FFFFFF;exitX=1;exitY=0.5;exitDx=0;exitDy=0;" parent="1" source="166" target="158" edge="1">
                    <mxGeometry relative="1" as="geometry"/>
                </mxCell>
                <mxCell id="173" value="EventListeners Buffer" style="rounded=1;whiteSpace=wrap;html=1;verticalAlign=top;align=center;fontSize=18;fillColor=#008a00;fontColor=#ffffff;strokeColor=#005700;container=1;dropTarget=1;recursiveResize=0;" parent="1" vertex="1">
                    <mxGeometry x="1100" y="-1030" width="230" height="280" as="geometry"/>
                </mxCell>
                <mxCell id="174" value="Event" style="rounded=1;whiteSpace=wrap;html=1;verticalAlign=top;align=center;fontSize=18;fillColor=#d80073;fontColor=#ffffff;strokeColor=#A50040;container=1;dropTarget=1;recursiveResize=0;" parent="173" vertex="1">
                    <mxGeometry x="60" y="40" width="110" height="30" as="geometry"/>
                </mxCell>
                <mxCell id="175" value="Event" style="rounded=1;whiteSpace=wrap;html=1;verticalAlign=top;align=center;fontSize=18;fillColor=#d80073;fontColor=#ffffff;strokeColor=#A50040;container=1;dropTarget=1;recursiveResize=0;" parent="173" vertex="1">
                    <mxGeometry x="60" y="80" width="110" height="30" as="geometry"/>
                </mxCell>
                <mxCell id="176" value="Event" style="rounded=1;whiteSpace=wrap;html=1;verticalAlign=top;align=center;fontSize=18;fillColor=#d80073;fontColor=#ffffff;strokeColor=#A50040;container=1;dropTarget=1;recursiveResize=0;" parent="173" vertex="1">
                    <mxGeometry x="60" y="120" width="110" height="30" as="geometry"/>
                </mxCell>
                <mxCell id="177" value="Event" style="rounded=1;whiteSpace=wrap;html=1;verticalAlign=top;align=center;fontSize=18;fillColor=#d80073;fontColor=#ffffff;strokeColor=#A50040;container=1;dropTarget=1;recursiveResize=0;" parent="173" vertex="1">
                    <mxGeometry x="60" y="160" width="110" height="30" as="geometry"/>
                </mxCell>
                <mxCell id="178" value="Event" style="rounded=1;whiteSpace=wrap;html=1;verticalAlign=top;align=center;fontSize=18;fillColor=#d80073;fontColor=#ffffff;strokeColor=#A50040;container=1;dropTarget=1;recursiveResize=0;" parent="173" vertex="1">
                    <mxGeometry x="60" y="200" width="110" height="30" as="geometry"/>
                </mxCell>
                <mxCell id="179" value="Event" style="rounded=1;whiteSpace=wrap;html=1;verticalAlign=top;align=center;fontSize=18;fillColor=#d80073;fontColor=#ffffff;strokeColor=#A50040;container=1;dropTarget=1;recursiveResize=0;" parent="173" vertex="1">
                    <mxGeometry x="60" y="240" width="110" height="30" as="geometry"/>
                </mxCell>
                <mxCell id="180" style="edgeStyle=none;html=1;entryX=0;entryY=0.5;entryDx=0;entryDy=0;fontColor=#FFFFFF;fontSize=14;strokeWidth=4;exitX=1;exitY=0.5;exitDx=0;exitDy=0;startArrow=oval;startFill=1;" parent="1" source="181" target="174" edge="1">
                    <mxGeometry relative="1" as="geometry"/>
                </mxCell>
                <mxCell id="181" value="Mesh" style="rounded=1;whiteSpace=wrap;html=1;verticalAlign=top;align=center;fontSize=18;fillColor=#0050ef;fontColor=#ffffff;strokeColor=#001DBC;dropTarget=1;recursiveResize=0;container=1;" parent="1" vertex="1">
                    <mxGeometry x="450" y="-1170" width="470" height="400" as="geometry"/>
                </mxCell>
                <mxCell id="182" value="Mesh" style="rounded=1;whiteSpace=wrap;html=1;verticalAlign=top;align=center;fontSize=18;fillColor=#fa6800;fontColor=#FFFFFF;strokeColor=#C73500;container=1;dropTarget=1;recursiveResize=0;" parent="181" vertex="1">
                    <mxGeometry x="55" y="40" width="375" height="80" as="geometry"/>
                </mxCell>
                <mxCell id="183" value="Mesh" style="rounded=1;whiteSpace=wrap;html=1;verticalAlign=top;align=center;fontSize=18;fillColor=#fa6800;fontColor=#FFFFFF;strokeColor=#C73500;container=1;dropTarget=1;recursiveResize=0;" parent="181" vertex="1">
                    <mxGeometry x="60" y="140" width="375" height="80" as="geometry"/>
                </mxCell>
                <mxCell id="184" value="Mesh" style="rounded=1;whiteSpace=wrap;html=1;verticalAlign=top;align=center;fontSize=18;fillColor=#fa6800;fontColor=#FFFFFF;strokeColor=#C73500;container=1;dropTarget=1;recursiveResize=0;" parent="181" vertex="1">
                    <mxGeometry x="55" y="250" width="375" height="80" as="geometry"/>
                </mxCell>
                <mxCell id="188" value="EventListeners Buffer" style="rounded=1;whiteSpace=wrap;html=1;verticalAlign=top;align=center;fontSize=18;fillColor=#008a00;fontColor=#ffffff;strokeColor=#005700;container=1;dropTarget=1;recursiveResize=0;" parent="1" vertex="1">
                    <mxGeometry x="1720" y="-970" width="230" height="300" as="geometry"/>
                </mxCell>
                <mxCell id="189" value="Event" style="rounded=1;whiteSpace=wrap;html=1;verticalAlign=top;align=center;fontSize=18;fillColor=#d80073;fontColor=#ffffff;strokeColor=#A50040;container=1;dropTarget=1;recursiveResize=0;" parent="188" vertex="1">
                    <mxGeometry x="60" y="40" width="110" height="30" as="geometry"/>
                </mxCell>
                <mxCell id="190" value="Event" style="rounded=1;whiteSpace=wrap;html=1;verticalAlign=top;align=center;fontSize=18;fillColor=#d80073;fontColor=#ffffff;strokeColor=#A50040;container=1;dropTarget=1;recursiveResize=0;" parent="188" vertex="1">
                    <mxGeometry x="60" y="80" width="110" height="30" as="geometry"/>
                </mxCell>
                <mxCell id="191" value="Event" style="rounded=1;whiteSpace=wrap;html=1;verticalAlign=top;align=center;fontSize=18;fillColor=#d80073;fontColor=#ffffff;strokeColor=#A50040;container=1;dropTarget=1;recursiveResize=0;" parent="188" vertex="1">
                    <mxGeometry x="60" y="120" width="110" height="30" as="geometry"/>
                </mxCell>
                <mxCell id="192" value="Event" style="rounded=1;whiteSpace=wrap;html=1;verticalAlign=top;align=center;fontSize=18;fillColor=#d80073;fontColor=#ffffff;strokeColor=#A50040;container=1;dropTarget=1;recursiveResize=0;" parent="188" vertex="1">
                    <mxGeometry x="60" y="160" width="110" height="30" as="geometry"/>
                </mxCell>
                <mxCell id="193" value="Event" style="rounded=1;whiteSpace=wrap;html=1;verticalAlign=top;align=center;fontSize=18;fillColor=#d80073;fontColor=#ffffff;strokeColor=#A50040;container=1;dropTarget=1;recursiveResize=0;" parent="188" vertex="1">
                    <mxGeometry x="60" y="200" width="110" height="30" as="geometry"/>
                </mxCell>
                <mxCell id="194" value="Event" style="rounded=1;whiteSpace=wrap;html=1;verticalAlign=top;align=center;fontSize=18;fillColor=#d80073;fontColor=#ffffff;strokeColor=#A50040;container=1;dropTarget=1;recursiveResize=0;" parent="188" vertex="1">
                    <mxGeometry x="60" y="240" width="110" height="30" as="geometry"/>
                </mxCell>
                <mxCell id="195" style="edgeStyle=none;html=1;exitX=1;exitY=0.5;exitDx=0;exitDy=0;entryX=0;entryY=0;entryDx=0;entryDy=0;strokeWidth=3;fontSize=14;fontColor=#FFFFFF;startArrow=oval;startFill=1;" parent="1" source="174" target="188" edge="1">
                    <mxGeometry relative="1" as="geometry"/>
                </mxCell>
                <mxCell id="206" value="&lt;span style=&quot;font-size: 27px;&quot;&gt;Create new buffer: children[]&lt;/span&gt;" style="edgeLabel;html=1;align=center;verticalAlign=middle;resizable=0;points=[];fontSize=35;labelBackgroundColor=#808080;" parent="195" vertex="1" connectable="0">
                    <mxGeometry x="-0.1491" y="1" relative="1" as="geometry">
                        <mxPoint x="49" y="-1" as="offset"/>
                    </mxGeometry>
                </mxCell>
                <mxCell id="196" style="edgeStyle=none;html=1;exitX=1;exitY=0.5;exitDx=0;exitDy=0;entryX=0;entryY=0.5;entryDx=0;entryDy=0;strokeWidth=3;fontSize=14;fontColor=#FFFFFF;startArrow=oval;startFill=1;dashed=1;" parent="1" source="182" target="189" edge="1">
                    <mxGeometry relative="1" as="geometry">
                        <Array as="points">
                            <mxPoint x="1110" y="-670"/>
                            <mxPoint x="1220" y="-670"/>
                        </Array>
                    </mxGeometry>
                </mxCell>
                <mxCell id="197" style="edgeStyle=none;html=1;exitX=1;exitY=0.5;exitDx=0;exitDy=0;entryX=0;entryY=0.5;entryDx=0;entryDy=0;strokeWidth=3;fontSize=14;fontColor=#FFFFFF;startArrow=oval;startFill=1;dashed=1;" parent="1" source="183" target="190" edge="1">
                    <mxGeometry relative="1" as="geometry">
                        <Array as="points">
                            <mxPoint x="1090" y="-630"/>
                            <mxPoint x="1230" y="-630"/>
                        </Array>
                    </mxGeometry>
                </mxCell>
                <mxCell id="198" style="edgeStyle=none;html=1;exitX=1;exitY=0.5;exitDx=0;exitDy=0;entryX=0;entryY=0.5;entryDx=0;entryDy=0;strokeWidth=3;fontSize=14;fontColor=#FFFFFF;startArrow=oval;startFill=1;dashed=1;" parent="1" source="184" target="191" edge="1">
                    <mxGeometry relative="1" as="geometry">
                        <Array as="points">
                            <mxPoint x="1050" y="-590"/>
                            <mxPoint x="1250" y="-590"/>
                        </Array>
                    </mxGeometry>
                </mxCell>
                <mxCell id="201" value="&lt;h1 style=&quot;font-size: 21px;&quot;&gt;Check childrens for click events&amp;nbsp;&lt;/h1&gt;&lt;h1 style=&quot;font-size: 21px;&quot;&gt;only if parent is clicked&amp;nbsp;&lt;/h1&gt;" style="text;html=1;strokeColor=none;fillColor=#808080;spacing=5;spacingTop=-20;whiteSpace=wrap;overflow=hidden;rounded=0;fontSize=21;fontStyle=0;align=center;verticalAlign=middle;" parent="1" vertex="1">
                    <mxGeometry x="1340" y="-1080" width="360" height="70" as="geometry"/>
                </mxCell>
                <mxCell id="202" value="&lt;h1 style=&quot;font-size: 21px;&quot;&gt;Parent&amp;nbsp; (blue) has listen event (of same type)&lt;/h1&gt;" style="text;html=1;strokeColor=none;fillColor=#666666;spacing=5;spacingTop=-20;whiteSpace=wrap;overflow=hidden;rounded=0;fontSize=21;fontStyle=0" parent="1" vertex="1">
                    <mxGeometry x="480" y="-1930" width="510" height="40" as="geometry"/>
                </mxCell>
                <mxCell id="204" value="" style="shape=flexArrow;endArrow=classic;html=1;fontSize=35;fillColor=#FFFF00;" parent="1" edge="1">
                    <mxGeometry width="50" height="50" relative="1" as="geometry">
                        <mxPoint x="760" y="-1430" as="sourcePoint"/>
                        <mxPoint x="760" y="-1190" as="targetPoint"/>
                    </mxGeometry>
                </mxCell>
                <mxCell id="205" value="&lt;h1 style=&quot;font-size: 21px;&quot;&gt;In this Implementation we have set the parent only, to have a listen event,&lt;/h1&gt;&lt;div&gt;and the children are&amp;nbsp;&lt;/div&gt;" style="text;html=1;strokeColor=none;fillColor=#666666;spacing=5;spacingTop=-20;whiteSpace=wrap;overflow=hidden;rounded=0;fontSize=21;fontStyle=0;align=center;verticalAlign=middle;" parent="1" vertex="1">
                    <mxGeometry x="790" y="-1300" width="450" height="100" as="geometry"/>
                </mxCell>
                <mxCell id="207" value="EventListeners Buffer" style="rounded=1;whiteSpace=wrap;html=1;verticalAlign=top;align=center;fontSize=18;fillColor=#008a00;fontColor=#ffffff;strokeColor=#005700;container=1;dropTarget=1;recursiveResize=0;" parent="1" vertex="1">
                    <mxGeometry x="2730" y="-1790" width="230" height="280" as="geometry"/>
                </mxCell>
                <mxCell id="208" value="Event" style="rounded=1;whiteSpace=wrap;html=1;verticalAlign=top;align=center;fontSize=18;fillColor=#d80073;fontColor=#ffffff;strokeColor=#A50040;container=1;dropTarget=1;recursiveResize=0;" parent="207" vertex="1">
                    <mxGeometry x="60" y="40" width="110" height="30" as="geometry"/>
                </mxCell>
                <mxCell id="209" value="Event" style="rounded=1;whiteSpace=wrap;html=1;verticalAlign=top;align=center;fontSize=18;fillColor=#d80073;fontColor=#ffffff;strokeColor=#A50040;container=1;dropTarget=1;recursiveResize=0;" parent="207" vertex="1">
                    <mxGeometry x="60" y="80" width="110" height="30" as="geometry"/>
                </mxCell>
                <mxCell id="210" value="Event" style="rounded=1;whiteSpace=wrap;html=1;verticalAlign=top;align=center;fontSize=18;fillColor=#d80073;fontColor=#ffffff;strokeColor=#A50040;container=1;dropTarget=1;recursiveResize=0;" parent="207" vertex="1">
                    <mxGeometry x="60" y="120" width="110" height="30" as="geometry"/>
                </mxCell>
                <mxCell id="211" value="Event" style="rounded=1;whiteSpace=wrap;html=1;verticalAlign=top;align=center;fontSize=18;fillColor=#d80073;fontColor=#ffffff;strokeColor=#A50040;container=1;dropTarget=1;recursiveResize=0;" parent="207" vertex="1">
                    <mxGeometry x="60" y="160" width="110" height="30" as="geometry"/>
                </mxCell>
                <mxCell id="212" value="Event" style="rounded=1;whiteSpace=wrap;html=1;verticalAlign=top;align=center;fontSize=18;fillColor=#d80073;fontColor=#ffffff;strokeColor=#A50040;container=1;dropTarget=1;recursiveResize=0;" parent="207" vertex="1">
                    <mxGeometry x="60" y="200" width="110" height="30" as="geometry"/>
                </mxCell>
                <mxCell id="213" value="Event" style="rounded=1;whiteSpace=wrap;html=1;verticalAlign=top;align=center;fontSize=18;fillColor=#d80073;fontColor=#ffffff;strokeColor=#A50040;container=1;dropTarget=1;recursiveResize=0;" parent="207" vertex="1">
                    <mxGeometry x="60" y="240" width="110" height="30" as="geometry"/>
                </mxCell>
                <mxCell id="215" value="Mesh" style="rounded=1;whiteSpace=wrap;html=1;verticalAlign=top;align=center;fontSize=18;fillColor=#0050ef;fontColor=#ffffff;strokeColor=#001DBC;dropTarget=1;recursiveResize=0;container=1;" parent="1" vertex="1">
                    <mxGeometry x="2090" y="-1870" width="470" height="400" as="geometry"/>
                </mxCell>
                <mxCell id="216" value="Mesh" style="rounded=1;whiteSpace=wrap;html=1;verticalAlign=top;align=center;fontSize=18;fillColor=#fa6800;fontColor=#FFFFFF;strokeColor=#C73500;container=1;dropTarget=1;recursiveResize=0;" parent="215" vertex="1">
                    <mxGeometry x="55" y="40" width="375" height="80" as="geometry"/>
                </mxCell>
                <mxCell id="217" value="Mesh" style="rounded=1;whiteSpace=wrap;html=1;verticalAlign=top;align=center;fontSize=18;fillColor=#fa6800;fontColor=#FFFFFF;strokeColor=#C73500;container=1;dropTarget=1;recursiveResize=0;" parent="215" vertex="1">
                    <mxGeometry x="60" y="140" width="375" height="80" as="geometry"/>
                </mxCell>
                <mxCell id="218" value="Mesh" style="rounded=1;whiteSpace=wrap;html=1;verticalAlign=top;align=center;fontSize=18;fillColor=#fa6800;fontColor=#FFFFFF;strokeColor=#C73500;container=1;dropTarget=1;recursiveResize=0;" parent="215" vertex="1">
                    <mxGeometry x="55" y="250" width="375" height="80" as="geometry"/>
                </mxCell>
                <mxCell id="219" style="edgeStyle=none;html=1;exitX=1;exitY=0.5;exitDx=0;exitDy=0;fontColor=#FFFFFF;entryX=0;entryY=0.5;entryDx=0;entryDy=0;strokeWidth=3;" parent="1" source="216" target="208" edge="1">
                    <mxGeometry relative="1" as="geometry">
                        <mxPoint x="2620" y="-1800" as="targetPoint"/>
                    </mxGeometry>
                </mxCell>
                <mxCell id="220" style="edgeStyle=none;html=1;exitX=1;exitY=0.5;exitDx=0;exitDy=0;strokeWidth=3;fontSize=14;fontColor=#FFFFFF;entryX=0;entryY=0.5;entryDx=0;entryDy=0;" parent="1" source="217" target="209" edge="1">
                    <mxGeometry relative="1" as="geometry">
                        <mxPoint x="2800" y="-1595" as="targetPoint"/>
                    </mxGeometry>
                </mxCell>
                <mxCell id="221" style="edgeStyle=none;html=1;entryX=0;entryY=0.5;entryDx=0;entryDy=0;strokeWidth=3;fontSize=14;fontColor=#FFFFFF;exitX=1;exitY=0.5;exitDx=0;exitDy=0;" parent="1" source="218" target="210" edge="1">
                    <mxGeometry relative="1" as="geometry"/>
                </mxCell>
                <mxCell id="222" value="EventListeners Buffer" style="rounded=1;whiteSpace=wrap;html=1;verticalAlign=top;align=center;fontSize=18;fillColor=#008a00;fontColor=#ffffff;strokeColor=#005700;container=1;dropTarget=1;recursiveResize=0;" parent="1" vertex="1">
                    <mxGeometry x="2730" y="-1040" width="230" height="280" as="geometry"/>
                </mxCell>
                <mxCell id="223" value="Event" style="rounded=1;whiteSpace=wrap;html=1;verticalAlign=top;align=center;fontSize=18;fillColor=#d80073;fontColor=#ffffff;strokeColor=#A50040;container=1;dropTarget=1;recursiveResize=0;" parent="222" vertex="1">
                    <mxGeometry x="60" y="40" width="110" height="30" as="geometry"/>
                </mxCell>
                <mxCell id="224" value="Event" style="rounded=1;whiteSpace=wrap;html=1;verticalAlign=top;align=center;fontSize=18;fillColor=#d80073;fontColor=#ffffff;strokeColor=#A50040;container=1;dropTarget=1;recursiveResize=0;" parent="222" vertex="1">
                    <mxGeometry x="60" y="80" width="110" height="30" as="geometry"/>
                </mxCell>
                <mxCell id="225" value="Event" style="rounded=1;whiteSpace=wrap;html=1;verticalAlign=top;align=center;fontSize=18;fillColor=#d80073;fontColor=#ffffff;strokeColor=#A50040;container=1;dropTarget=1;recursiveResize=0;" parent="222" vertex="1">
                    <mxGeometry x="60" y="120" width="110" height="30" as="geometry"/>
                </mxCell>
                <mxCell id="226" value="Event" style="rounded=1;whiteSpace=wrap;html=1;verticalAlign=top;align=center;fontSize=18;fillColor=#d80073;fontColor=#ffffff;strokeColor=#A50040;container=1;dropTarget=1;recursiveResize=0;" parent="222" vertex="1">
                    <mxGeometry x="60" y="160" width="110" height="30" as="geometry"/>
                </mxCell>
                <mxCell id="227" value="Event" style="rounded=1;whiteSpace=wrap;html=1;verticalAlign=top;align=center;fontSize=18;fillColor=#d80073;fontColor=#ffffff;strokeColor=#A50040;container=1;dropTarget=1;recursiveResize=0;" parent="222" vertex="1">
                    <mxGeometry x="60" y="200" width="110" height="30" as="geometry"/>
                </mxCell>
                <mxCell id="228" value="Event" style="rounded=1;whiteSpace=wrap;html=1;verticalAlign=top;align=center;fontSize=18;fillColor=#d80073;fontColor=#ffffff;strokeColor=#A50040;container=1;dropTarget=1;recursiveResize=0;" parent="222" vertex="1">
                    <mxGeometry x="60" y="240" width="110" height="30" as="geometry"/>
                </mxCell>
                <mxCell id="229" style="edgeStyle=none;html=1;entryX=0;entryY=0.5;entryDx=0;entryDy=0;fontColor=#FFFFFF;fontSize=14;strokeWidth=4;exitX=1;exitY=0.5;exitDx=0;exitDy=0;startArrow=oval;startFill=1;" parent="1" source="230" target="223" edge="1">
                    <mxGeometry relative="1" as="geometry"/>
                </mxCell>
                <mxCell id="230" value="Mesh" style="rounded=1;whiteSpace=wrap;html=1;verticalAlign=top;align=center;fontSize=18;fillColor=#0050ef;fontColor=#ffffff;strokeColor=#001DBC;dropTarget=1;recursiveResize=0;container=1;" parent="1" vertex="1">
                    <mxGeometry x="2080" y="-1180" width="470" height="400" as="geometry"/>
                </mxCell>
                <mxCell id="231" value="Mesh" style="rounded=1;whiteSpace=wrap;html=1;verticalAlign=top;align=center;fontSize=18;fillColor=#fa6800;fontColor=#FFFFFF;strokeColor=#C73500;container=1;dropTarget=1;recursiveResize=0;" parent="230" vertex="1">
                    <mxGeometry x="55" y="40" width="375" height="80" as="geometry"/>
                </mxCell>
                <mxCell id="232" value="Mesh" style="rounded=1;whiteSpace=wrap;html=1;verticalAlign=top;align=center;fontSize=18;fillColor=#fa6800;fontColor=#FFFFFF;strokeColor=#C73500;container=1;dropTarget=1;recursiveResize=0;" parent="230" vertex="1">
                    <mxGeometry x="60" y="140" width="375" height="80" as="geometry"/>
                </mxCell>
                <mxCell id="233" value="Mesh" style="rounded=1;whiteSpace=wrap;html=1;verticalAlign=top;align=center;fontSize=18;fillColor=#fa6800;fontColor=#FFFFFF;strokeColor=#C73500;container=1;dropTarget=1;recursiveResize=0;" parent="230" vertex="1">
                    <mxGeometry x="55" y="250" width="375" height="80" as="geometry"/>
                </mxCell>
                <mxCell id="234" value="EventListeners Buffer" style="rounded=1;whiteSpace=wrap;html=1;verticalAlign=top;align=center;fontSize=18;fillColor=#008a00;fontColor=#ffffff;strokeColor=#005700;container=1;dropTarget=1;recursiveResize=0;" parent="1" vertex="1">
                    <mxGeometry x="3350" y="-980" width="230" height="300" as="geometry"/>
                </mxCell>
                <mxCell id="235" value="Event" style="rounded=1;whiteSpace=wrap;html=1;verticalAlign=top;align=center;fontSize=18;fillColor=#d80073;fontColor=#ffffff;strokeColor=#A50040;container=1;dropTarget=1;recursiveResize=0;" parent="234" vertex="1">
                    <mxGeometry x="60" y="40" width="110" height="30" as="geometry"/>
                </mxCell>
                <mxCell id="236" value="Event" style="rounded=1;whiteSpace=wrap;html=1;verticalAlign=top;align=center;fontSize=18;fillColor=#d80073;fontColor=#ffffff;strokeColor=#A50040;container=1;dropTarget=1;recursiveResize=0;" parent="234" vertex="1">
                    <mxGeometry x="60" y="80" width="110" height="30" as="geometry"/>
                </mxCell>
                <mxCell id="237" value="Event" style="rounded=1;whiteSpace=wrap;html=1;verticalAlign=top;align=center;fontSize=18;fillColor=#d80073;fontColor=#ffffff;strokeColor=#A50040;container=1;dropTarget=1;recursiveResize=0;" parent="234" vertex="1">
                    <mxGeometry x="60" y="120" width="110" height="30" as="geometry"/>
                </mxCell>
                <mxCell id="238" value="Event" style="rounded=1;whiteSpace=wrap;html=1;verticalAlign=top;align=center;fontSize=18;fillColor=#d80073;fontColor=#ffffff;strokeColor=#A50040;container=1;dropTarget=1;recursiveResize=0;" parent="234" vertex="1">
                    <mxGeometry x="60" y="160" width="110" height="30" as="geometry"/>
                </mxCell>
                <mxCell id="239" value="Event" style="rounded=1;whiteSpace=wrap;html=1;verticalAlign=top;align=center;fontSize=18;fillColor=#d80073;fontColor=#ffffff;strokeColor=#A50040;container=1;dropTarget=1;recursiveResize=0;" parent="234" vertex="1">
                    <mxGeometry x="60" y="200" width="110" height="30" as="geometry"/>
                </mxCell>
                <mxCell id="240" value="Event" style="rounded=1;whiteSpace=wrap;html=1;verticalAlign=top;align=center;fontSize=18;fillColor=#d80073;fontColor=#ffffff;strokeColor=#A50040;container=1;dropTarget=1;recursiveResize=0;" parent="234" vertex="1">
                    <mxGeometry x="60" y="240" width="110" height="30" as="geometry"/>
                </mxCell>
                <mxCell id="241" style="edgeStyle=none;html=1;exitX=1;exitY=0.5;exitDx=0;exitDy=0;entryX=0;entryY=0;entryDx=0;entryDy=0;strokeWidth=3;fontSize=14;fontColor=#FFFFFF;startArrow=oval;startFill=1;" parent="1" source="223" target="234" edge="1">
                    <mxGeometry relative="1" as="geometry"/>
                </mxCell>
                <mxCell id="242" value="&lt;font style=&quot;font-size: 27px;&quot;&gt;Create new buffer: children[]&lt;/font&gt;" style="edgeLabel;html=1;align=center;verticalAlign=middle;resizable=0;points=[];fontSize=35;labelBackgroundColor=#808080;" parent="241" vertex="1" connectable="0">
                    <mxGeometry x="-0.1491" y="1" relative="1" as="geometry">
                        <mxPoint x="49" y="-1" as="offset"/>
                    </mxGeometry>
                </mxCell>
                <mxCell id="243" style="edgeStyle=none;html=1;exitX=1;exitY=0.5;exitDx=0;exitDy=0;entryX=0;entryY=0.5;entryDx=0;entryDy=0;strokeWidth=3;fontSize=14;fontColor=#FFFFFF;startArrow=oval;startFill=1;dashed=1;" parent="1" source="231" target="235" edge="1">
                    <mxGeometry relative="1" as="geometry">
                        <Array as="points">
                            <mxPoint x="2740" y="-680"/>
                            <mxPoint x="2850" y="-680"/>
                        </Array>
                    </mxGeometry>
                </mxCell>
                <mxCell id="244" style="edgeStyle=none;html=1;exitX=1;exitY=0.5;exitDx=0;exitDy=0;entryX=0;entryY=0.5;entryDx=0;entryDy=0;strokeWidth=3;fontSize=14;fontColor=#FFFFFF;startArrow=oval;startFill=1;dashed=1;" parent="1" source="232" target="236" edge="1">
                    <mxGeometry relative="1" as="geometry">
                        <Array as="points">
                            <mxPoint x="2720" y="-640"/>
                            <mxPoint x="2860" y="-640"/>
                        </Array>
                    </mxGeometry>
                </mxCell>
                <mxCell id="245" style="edgeStyle=none;html=1;exitX=1;exitY=0.5;exitDx=0;exitDy=0;entryX=0;entryY=0.5;entryDx=0;entryDy=0;strokeWidth=3;fontSize=14;fontColor=#FFFFFF;startArrow=oval;startFill=1;dashed=1;" parent="1" source="233" target="237" edge="1">
                    <mxGeometry relative="1" as="geometry">
                        <Array as="points">
                            <mxPoint x="2680" y="-600"/>
                            <mxPoint x="2880" y="-600"/>
                        </Array>
                    </mxGeometry>
                </mxCell>
                <mxCell id="246" value="&lt;h1 style=&quot;font-size: 21px;&quot;&gt;Check childrens for click events&amp;nbsp;&lt;/h1&gt;&lt;h1 style=&quot;font-size: 21px;&quot;&gt;only if parent is clicked&amp;nbsp;&lt;/h1&gt;" style="text;html=1;strokeColor=none;fillColor=#808080;spacing=5;spacingTop=-20;whiteSpace=wrap;overflow=hidden;rounded=0;fontSize=21;fontStyle=0;align=center;verticalAlign=middle;" parent="1" vertex="1">
                    <mxGeometry x="2970" y="-1090" width="360" height="70" as="geometry"/>
                </mxCell>
                <mxCell id="247" value="&lt;h1 style=&quot;font-size: 21px;&quot;&gt;Parent&amp;nbsp; (blue) does not have listen event (of same type)&lt;/h1&gt;" style="text;html=1;strokeColor=none;fillColor=#666666;spacing=5;spacingTop=-20;whiteSpace=wrap;overflow=hidden;rounded=0;fontSize=21;fontStyle=0" parent="1" vertex="1">
                    <mxGeometry x="2080" y="-1950" width="510" height="60" as="geometry"/>
                </mxCell>
                <mxCell id="248" value="" style="shape=flexArrow;endArrow=classic;html=1;fontSize=35;fillColor=#FFFF00;strokeColor=none;" parent="1" edge="1">
                    <mxGeometry width="50" height="50" relative="1" as="geometry">
                        <mxPoint x="2320" y="-1440" as="sourcePoint"/>
                        <mxPoint x="2320" y="-1200" as="targetPoint"/>
                    </mxGeometry>
                </mxCell>
                <mxCell id="249" value="&lt;h1 style=&quot;font-size: 21px;&quot;&gt;For the implementation we have to set a FAKE listen event for the parent, so that the EventsListener dispatch() will LISTEn to the parent instead of all the children one by one&amp;nbsp;&lt;/h1&gt;" style="text;html=1;strokeColor=none;fillColor=#666666;spacing=5;spacingTop=-20;whiteSpace=wrap;overflow=hidden;rounded=0;fontSize=21;fontStyle=0;align=center;verticalAlign=middle;" parent="1" vertex="1">
                    <mxGeometry x="2330" y="-1400" width="450" height="130" as="geometry"/>
                </mxCell>
                <mxCell id="250" value="Mesh" style="rounded=1;whiteSpace=wrap;html=1;verticalAlign=top;align=center;fontSize=18;fillColor=#0050ef;fontColor=#ffffff;strokeColor=#001DBC;dropTarget=1;recursiveResize=0;container=1;" parent="1" vertex="1">
                    <mxGeometry x="1770" y="-3030" width="865" height="390" as="geometry"/>
                </mxCell>
                <mxCell id="252" value="Mesh" style="rounded=1;whiteSpace=wrap;html=1;verticalAlign=top;align=center;fontSize=18;fillColor=#fa6800;fontColor=#FFFFFF;strokeColor=#C73500;container=1;dropTarget=1;recursiveResize=0;" parent="250" vertex="1">
                    <mxGeometry x="35" y="50" width="300" height="310" as="geometry"/>
                </mxCell>
                <mxCell id="254" value="Mesh" style="rounded=1;whiteSpace=wrap;html=1;verticalAlign=top;align=center;fontSize=18;fillColor=#008a00;fontColor=#ffffff;strokeColor=#005700;container=1;dropTarget=1;recursiveResize=0;" parent="252" vertex="1">
                    <mxGeometry x="10" y="35" width="80" height="80" as="geometry"/>
                </mxCell>
                <mxCell id="255" value="Mesh" style="rounded=1;whiteSpace=wrap;html=1;verticalAlign=top;align=center;fontSize=18;fillColor=#008a00;fontColor=#ffffff;strokeColor=#005700;container=1;dropTarget=1;recursiveResize=0;" parent="252" vertex="1">
                    <mxGeometry x="100" y="35" width="80" height="80" as="geometry"/>
                </mxCell>
                <mxCell id="256" value="Mesh" style="rounded=1;whiteSpace=wrap;html=1;verticalAlign=top;align=center;fontSize=18;fillColor=#d80073;fontColor=#ffffff;strokeColor=#A50040;container=1;dropTarget=1;recursiveResize=0;" parent="252" vertex="1">
                    <mxGeometry x="10" y="140" width="280" height="150" as="geometry"/>
                </mxCell>
                <mxCell id="257" value="Mesh" style="rounded=1;whiteSpace=wrap;html=1;verticalAlign=top;align=center;fontSize=18;fillColor=#008a00;fontColor=#ffffff;strokeColor=#005700;container=1;dropTarget=1;recursiveResize=0;" parent="256" vertex="1">
                    <mxGeometry x="10" y="35" width="80" height="80" as="geometry"/>
                </mxCell>
                <mxCell id="258" value="Mesh" style="rounded=1;whiteSpace=wrap;html=1;verticalAlign=top;align=center;fontSize=18;fillColor=#008a00;fontColor=#ffffff;strokeColor=#005700;container=1;dropTarget=1;recursiveResize=0;" parent="256" vertex="1">
                    <mxGeometry x="100" y="35" width="80" height="80" as="geometry"/>
                </mxCell>
                <mxCell id="259" value="Mesh" style="rounded=1;whiteSpace=wrap;html=1;verticalAlign=top;align=center;fontSize=18;container=1;dropTarget=1;recursiveResize=0;" parent="256" vertex="1">
                    <mxGeometry x="190" y="35" width="80" height="80" as="geometry"/>
                </mxCell>
                <mxCell id="260" value="Mesh" style="rounded=1;whiteSpace=wrap;html=1;verticalAlign=top;align=center;fontSize=18;fillColor=#fa6800;fontColor=#FFFFFF;strokeColor=#C73500;container=1;dropTarget=1;recursiveResize=0;" parent="250" vertex="1">
                    <mxGeometry x="365" y="50" width="470" height="310" as="geometry"/>
                </mxCell>
                <mxCell id="263" value="Mesh" style="rounded=1;whiteSpace=wrap;html=1;verticalAlign=top;align=center;fontSize=18;fillColor=#d80073;fontColor=#ffffff;strokeColor=#A50040;container=1;dropTarget=1;recursiveResize=0;" parent="260" vertex="1">
                    <mxGeometry x="10" y="40" width="200" height="130" as="geometry"/>
                </mxCell>
                <mxCell id="264" value="Mesh" style="rounded=1;whiteSpace=wrap;html=1;verticalAlign=top;align=center;fontSize=18;fillColor=#008a00;fontColor=#ffffff;strokeColor=#005700;container=1;dropTarget=1;recursiveResize=0;" parent="263" vertex="1">
                    <mxGeometry x="10" y="35" width="80" height="80" as="geometry"/>
                </mxCell>
                <mxCell id="265" value="Mesh" style="rounded=1;whiteSpace=wrap;html=1;verticalAlign=top;align=center;fontSize=18;fillColor=#008a00;fontColor=#ffffff;strokeColor=#005700;container=1;dropTarget=1;recursiveResize=0;" parent="263" vertex="1">
                    <mxGeometry x="100" y="35" width="80" height="80" as="geometry"/>
                </mxCell>
                <mxCell id="267" value="Mesh" style="rounded=1;whiteSpace=wrap;html=1;verticalAlign=top;align=center;fontSize=18;fillColor=#d80073;fontColor=#ffffff;strokeColor=#A50040;container=1;dropTarget=1;recursiveResize=0;" parent="260" vertex="1">
                    <mxGeometry x="240" y="40" width="200" height="130" as="geometry"/>
                </mxCell>
                <mxCell id="268" value="Mesh" style="rounded=1;whiteSpace=wrap;html=1;verticalAlign=top;align=center;fontSize=18;fillColor=#008a00;fontColor=#ffffff;strokeColor=#005700;container=1;dropTarget=1;recursiveResize=0;" parent="267" vertex="1">
                    <mxGeometry x="10" y="35" width="80" height="80" as="geometry"/>
                </mxCell>
                <mxCell id="269" value="Mesh" style="rounded=1;whiteSpace=wrap;html=1;verticalAlign=top;align=center;fontSize=18;fillColor=#008a00;fontColor=#ffffff;strokeColor=#005700;container=1;dropTarget=1;recursiveResize=0;" parent="267" vertex="1">
                    <mxGeometry x="100" y="35" width="80" height="80" as="geometry"/>
                </mxCell>
                <mxCell id="270" value="Mesh" style="rounded=1;whiteSpace=wrap;html=1;verticalAlign=top;align=center;fontSize=18;fillColor=#008a00;fontColor=#ffffff;strokeColor=#005700;container=1;dropTarget=1;recursiveResize=0;" parent="260" vertex="1">
                    <mxGeometry x="20" y="190" width="80" height="80" as="geometry"/>
                </mxCell>
                <mxCell id="271" value="Mesh" style="rounded=1;whiteSpace=wrap;html=1;verticalAlign=top;align=center;fontSize=18;fillColor=#008a00;fontColor=#ffffff;strokeColor=#005700;container=1;dropTarget=1;recursiveResize=0;" parent="260" vertex="1">
                    <mxGeometry x="110" y="190" width="80" height="80" as="geometry"/>
                </mxCell>
                <mxCell id="273" style="edgeStyle=none;html=1;exitX=0.5;exitY=0;exitDx=0;exitDy=0;entryX=0.5;entryY=1;entryDx=0;entryDy=0;dashed=1;fontSize=27;fillColor=#FFFF00;strokeWidth=4;" parent="1" source="272" target="259" edge="1">
                    <mxGeometry relative="1" as="geometry"/>
                </mxCell>
                <mxCell id="272" value="&lt;h1 style=&quot;font-size: 21px;&quot;&gt;Has click event&lt;/h1&gt;" style="text;html=1;strokeColor=none;fillColor=#666666;spacing=5;spacingTop=-20;whiteSpace=wrap;overflow=hidden;rounded=0;fontSize=21;fontStyle=0" parent="1" vertex="1">
                    <mxGeometry x="1750" y="-2610" width="170" height="40" as="geometry"/>
                </mxCell>
                <mxCell id="275" style="edgeStyle=none;html=1;exitX=0.5;exitY=0;exitDx=0;exitDy=0;entryX=0.5;entryY=1;entryDx=0;entryDy=0;dashed=1;strokeWidth=4;fontSize=27;fillColor=#FFFF00;" parent="1" source="274" target="250" edge="1">
                    <mxGeometry relative="1" as="geometry"/>
                </mxCell>
                <mxCell id="274" value="&lt;h1 style=&quot;font-size: 21px;&quot;&gt;Create FAKE click event&lt;/h1&gt;" style="text;html=1;strokeColor=none;fillColor=#666666;spacing=5;spacingTop=-20;whiteSpace=wrap;overflow=hidden;rounded=0;fontSize=21;fontStyle=0" parent="1" vertex="1">
                    <mxGeometry x="1860" y="-2450" width="150" height="60" as="geometry"/>
                </mxCell>
                <mxCell id="276" value="&lt;h1 style=&quot;&quot;&gt;&lt;font style=&quot;font-size: 29px;&quot;&gt;How to implement on a more complex widget tree structure&lt;/font&gt;&lt;/h1&gt;" style="text;html=1;strokeColor=none;fillColor=#666666;spacing=5;spacingTop=-20;whiteSpace=wrap;overflow=hidden;rounded=0;fontSize=21;fontStyle=0" parent="1" vertex="1">
                    <mxGeometry x="1945" y="-3280" width="365" height="180" as="geometry"/>
                </mxCell>
                <mxCell id="277" value="&lt;h1 style=&quot;font-size: 21px;&quot;&gt;We set the top root parent and not the mesh's parent&amp;nbsp;&lt;/h1&gt;" style="text;html=1;strokeColor=none;fillColor=#666666;spacing=5;spacingTop=-20;whiteSpace=wrap;overflow=hidden;rounded=0;fontSize=21;fontStyle=0" parent="1" vertex="1">
                    <mxGeometry x="2030" y="-2510" width="230" height="90" as="geometry"/>
                </mxCell>
                <mxCell id="278" value="Mesh" style="rounded=1;whiteSpace=wrap;html=1;verticalAlign=top;align=center;fontSize=18;fillColor=#0050ef;fontColor=#ffffff;strokeColor=#001DBC;dropTarget=1;recursiveResize=0;container=1;" parent="1" vertex="1">
                    <mxGeometry x="2990" y="-3030" width="865" height="390" as="geometry"/>
                </mxCell>
                <mxCell id="279" value="Mesh" style="rounded=1;whiteSpace=wrap;html=1;verticalAlign=top;align=center;fontSize=18;fillColor=#fa6800;fontColor=#FFFFFF;strokeColor=#C73500;container=1;dropTarget=1;recursiveResize=0;" parent="278" vertex="1">
                    <mxGeometry x="35" y="50" width="300" height="310" as="geometry"/>
                </mxCell>
                <mxCell id="280" value="Mesh" style="rounded=1;whiteSpace=wrap;html=1;verticalAlign=top;align=center;fontSize=18;fillColor=#008a00;fontColor=#ffffff;strokeColor=#005700;container=1;dropTarget=1;recursiveResize=0;" parent="279" vertex="1">
                    <mxGeometry x="10" y="35" width="80" height="80" as="geometry"/>
                </mxCell>
                <mxCell id="281" value="Mesh" style="rounded=1;whiteSpace=wrap;html=1;verticalAlign=top;align=center;fontSize=18;fillColor=#008a00;fontColor=#ffffff;strokeColor=#005700;container=1;dropTarget=1;recursiveResize=0;" parent="279" vertex="1">
                    <mxGeometry x="100" y="35" width="80" height="80" as="geometry"/>
                </mxCell>
                <mxCell id="282" value="Mesh" style="rounded=1;whiteSpace=wrap;html=1;verticalAlign=top;align=center;fontSize=18;fillColor=#d80073;fontColor=#ffffff;strokeColor=#A50040;container=1;dropTarget=1;recursiveResize=0;" parent="279" vertex="1">
                    <mxGeometry x="10" y="140" width="280" height="150" as="geometry"/>
                </mxCell>
                <mxCell id="283" value="Mesh" style="rounded=1;whiteSpace=wrap;html=1;verticalAlign=top;align=center;fontSize=18;fillColor=#008a00;fontColor=#ffffff;strokeColor=#005700;container=1;dropTarget=1;recursiveResize=0;" parent="282" vertex="1">
                    <mxGeometry x="10" y="35" width="80" height="80" as="geometry"/>
                </mxCell>
                <mxCell id="284" value="Mesh" style="rounded=1;whiteSpace=wrap;html=1;verticalAlign=top;align=center;fontSize=18;fillColor=#008a00;fontColor=#ffffff;strokeColor=#005700;container=1;dropTarget=1;recursiveResize=0;" parent="282" vertex="1">
                    <mxGeometry x="100" y="35" width="80" height="80" as="geometry"/>
                </mxCell>
                <mxCell id="285" value="Mesh" style="rounded=1;whiteSpace=wrap;html=1;verticalAlign=top;align=center;fontSize=18;container=1;dropTarget=1;recursiveResize=0;" parent="282" vertex="1">
                    <mxGeometry x="190" y="35" width="80" height="80" as="geometry"/>
                </mxCell>
                <mxCell id="286" value="Mesh" style="rounded=1;whiteSpace=wrap;html=1;verticalAlign=top;align=center;fontSize=18;fillColor=#fa6800;fontColor=#FFFFFF;strokeColor=#C73500;container=1;dropTarget=1;recursiveResize=0;" parent="278" vertex="1">
                    <mxGeometry x="365" y="50" width="470" height="310" as="geometry"/>
                </mxCell>
                <mxCell id="287" value="Mesh" style="rounded=1;whiteSpace=wrap;html=1;verticalAlign=top;align=center;fontSize=18;fillColor=#d80073;fontColor=#ffffff;strokeColor=#A50040;container=1;dropTarget=1;recursiveResize=0;" parent="286" vertex="1">
                    <mxGeometry x="10" y="40" width="200" height="130" as="geometry"/>
                </mxCell>
                <mxCell id="288" value="Mesh" style="rounded=1;whiteSpace=wrap;html=1;verticalAlign=top;align=center;fontSize=18;container=1;dropTarget=1;recursiveResize=0;" parent="287" vertex="1">
                    <mxGeometry x="10" y="35" width="80" height="80" as="geometry"/>
                </mxCell>
                <mxCell id="289" value="Mesh" style="rounded=1;whiteSpace=wrap;html=1;verticalAlign=top;align=center;fontSize=18;fillColor=#008a00;fontColor=#ffffff;strokeColor=#005700;container=1;dropTarget=1;recursiveResize=0;" parent="287" vertex="1">
                    <mxGeometry x="100" y="35" width="80" height="80" as="geometry"/>
                </mxCell>
                <mxCell id="290" value="Mesh" style="rounded=1;whiteSpace=wrap;html=1;verticalAlign=top;align=center;fontSize=18;fillColor=#d80073;fontColor=#ffffff;strokeColor=#A50040;container=1;dropTarget=1;recursiveResize=0;" parent="286" vertex="1">
                    <mxGeometry x="240" y="40" width="200" height="130" as="geometry"/>
                </mxCell>
                <mxCell id="291" value="Mesh" style="rounded=1;whiteSpace=wrap;html=1;verticalAlign=top;align=center;fontSize=18;fillColor=#008a00;fontColor=#ffffff;strokeColor=#005700;container=1;dropTarget=1;recursiveResize=0;" parent="290" vertex="1">
                    <mxGeometry x="10" y="35" width="80" height="80" as="geometry"/>
                </mxCell>
                <mxCell id="292" value="Mesh" style="rounded=1;whiteSpace=wrap;html=1;verticalAlign=top;align=center;fontSize=18;fillColor=#008a00;fontColor=#ffffff;strokeColor=#005700;container=1;dropTarget=1;recursiveResize=0;" parent="290" vertex="1">
                    <mxGeometry x="100" y="35" width="80" height="80" as="geometry"/>
                </mxCell>
                <mxCell id="293" value="Mesh" style="rounded=1;whiteSpace=wrap;html=1;verticalAlign=top;align=center;fontSize=18;fillColor=#008a00;fontColor=#ffffff;strokeColor=#005700;container=1;dropTarget=1;recursiveResize=0;" parent="286" vertex="1">
                    <mxGeometry x="20" y="190" width="80" height="80" as="geometry"/>
                </mxCell>
                <mxCell id="294" value="Mesh" style="rounded=1;whiteSpace=wrap;html=1;verticalAlign=top;align=center;fontSize=18;fillColor=#008a00;fontColor=#ffffff;strokeColor=#005700;container=1;dropTarget=1;recursiveResize=0;" parent="286" vertex="1">
                    <mxGeometry x="110" y="190" width="80" height="80" as="geometry"/>
                </mxCell>
                <mxCell id="295" style="edgeStyle=none;html=1;exitX=0.5;exitY=0;exitDx=0;exitDy=0;entryX=0.5;entryY=1;entryDx=0;entryDy=0;dashed=1;fontSize=27;fillColor=#FFFF00;strokeWidth=4;" parent="1" source="296" target="285" edge="1">
                    <mxGeometry relative="1" as="geometry"/>
                </mxCell>
                <mxCell id="300" style="edgeStyle=none;html=1;exitX=0.5;exitY=0;exitDx=0;exitDy=0;entryX=0.5;entryY=1;entryDx=0;entryDy=0;dashed=1;strokeWidth=4;fontSize=29;fillColor=#FFFF00;" parent="1" source="296" target="288" edge="1">
                    <mxGeometry relative="1" as="geometry"/>
                </mxCell>
                <mxCell id="296" value="&lt;h1 style=&quot;font-size: 21px;&quot;&gt;Have click event&lt;/h1&gt;" style="text;html=1;strokeColor=none;fillColor=#666666;spacing=5;spacingTop=-20;whiteSpace=wrap;overflow=hidden;rounded=0;fontSize=21;fontStyle=0" parent="1" vertex="1">
                    <mxGeometry x="3140" y="-2620" width="190" height="40" as="geometry"/>
                </mxCell>
                <mxCell id="297" style="edgeStyle=none;html=1;exitX=0.5;exitY=0;exitDx=0;exitDy=0;entryX=0.5;entryY=1;entryDx=0;entryDy=0;dashed=1;strokeWidth=4;fontSize=27;fillColor=#FFFF00;" parent="1" source="298" target="278" edge="1">
                    <mxGeometry relative="1" as="geometry"/>
                </mxCell>
                <mxCell id="298" value="&lt;h1 style=&quot;font-size: 21px;&quot;&gt;Create FAKE click event&lt;/h1&gt;" style="text;html=1;strokeColor=none;fillColor=#666666;spacing=5;spacingTop=-20;whiteSpace=wrap;overflow=hidden;rounded=0;fontSize=21;fontStyle=0" parent="1" vertex="1">
                    <mxGeometry x="3150" y="-2405" width="150" height="60" as="geometry"/>
                </mxCell>
                <mxCell id="299" value="&lt;h1 style=&quot;font-size: 21px;&quot;&gt;We set the top root parent and not the mesh's parent&amp;nbsp;&lt;/h1&gt;" style="text;html=1;strokeColor=none;fillColor=#666666;spacing=5;spacingTop=-20;whiteSpace=wrap;overflow=hidden;rounded=0;fontSize=21;fontStyle=0" parent="1" vertex="1">
                    <mxGeometry x="3270" y="-2525" width="230" height="90" as="geometry"/>
                </mxCell>
                <mxCell id="301" value="" style="shape=flexArrow;endArrow=classic;html=1;dashed=1;strokeWidth=4;fontSize=29;fillColor=#FFFF00;strokeColor=none;" parent="1" edge="1">
                    <mxGeometry width="50" height="50" relative="1" as="geometry">
                        <mxPoint x="2655" y="-2830" as="sourcePoint"/>
                        <mxPoint x="2960" y="-2830" as="targetPoint"/>
                    </mxGeometry>
                </mxCell>
                <mxCell id="302" value="&lt;h1 style=&quot;font-size: 21px;&quot;&gt;Case we have many inner meshes with click event&lt;/h1&gt;" style="text;html=1;strokeColor=none;fillColor=#666666;spacing=5;spacingTop=-20;whiteSpace=wrap;overflow=hidden;rounded=0;fontSize=21;fontStyle=0" parent="1" vertex="1">
                    <mxGeometry x="2680" y="-2950" width="260" height="80" as="geometry"/>
                </mxCell>
                <mxCell id="303" value="EventListeners Buffer" style="rounded=1;whiteSpace=wrap;html=1;verticalAlign=top;align=center;fontSize=18;fillColor=#008a00;fontColor=#ffffff;strokeColor=#005700;container=1;dropTarget=1;recursiveResize=0;" parent="1" vertex="1">
                    <mxGeometry x="2340" y="-2550" width="150" height="300" as="geometry"/>
                </mxCell>
                <mxCell id="304" value="Event" style="rounded=1;whiteSpace=wrap;html=1;verticalAlign=top;align=center;fontSize=18;fillColor=#d80073;fontColor=#ffffff;strokeColor=#A50040;container=1;dropTarget=1;recursiveResize=0;" parent="303" vertex="1">
                    <mxGeometry x="20" y="60" width="110" height="30" as="geometry"/>
                </mxCell>
                <mxCell id="305" value="Event" style="rounded=1;whiteSpace=wrap;html=1;verticalAlign=top;align=center;fontSize=18;fillColor=#d80073;fontColor=#ffffff;strokeColor=#A50040;container=1;dropTarget=1;recursiveResize=0;" parent="303" vertex="1">
                    <mxGeometry x="20" y="100" width="110" height="30" as="geometry"/>
                </mxCell>
                <mxCell id="306" value="Event" style="rounded=1;whiteSpace=wrap;html=1;verticalAlign=top;align=center;fontSize=18;fillColor=#d80073;fontColor=#ffffff;strokeColor=#A50040;container=1;dropTarget=1;recursiveResize=0;" parent="303" vertex="1">
                    <mxGeometry x="20" y="140" width="110" height="30" as="geometry"/>
                </mxCell>
                <mxCell id="307" value="Event" style="rounded=1;whiteSpace=wrap;html=1;verticalAlign=top;align=center;fontSize=18;fillColor=#d80073;fontColor=#ffffff;strokeColor=#A50040;container=1;dropTarget=1;recursiveResize=0;" parent="303" vertex="1">
                    <mxGeometry x="20" y="180" width="110" height="30" as="geometry"/>
                </mxCell>
                <mxCell id="308" value="Event" style="rounded=1;whiteSpace=wrap;html=1;verticalAlign=top;align=center;fontSize=18;fillColor=#d80073;fontColor=#ffffff;strokeColor=#A50040;container=1;dropTarget=1;recursiveResize=0;" parent="303" vertex="1">
                    <mxGeometry x="20" y="220" width="110" height="30" as="geometry"/>
                </mxCell>
                <mxCell id="309" value="Event" style="rounded=1;whiteSpace=wrap;html=1;verticalAlign=top;align=center;fontSize=18;fillColor=#d80073;fontColor=#ffffff;strokeColor=#A50040;container=1;dropTarget=1;recursiveResize=0;" parent="303" vertex="1">
                    <mxGeometry x="20" y="260" width="110" height="30" as="geometry"/>
                </mxCell>
                <mxCell id="311" value="EventListeners Buffer" style="rounded=1;whiteSpace=wrap;html=1;verticalAlign=top;align=center;fontSize=18;fillColor=#008a00;fontColor=#ffffff;strokeColor=#005700;container=1;dropTarget=1;recursiveResize=0;" parent="1" vertex="1">
                    <mxGeometry x="2550" y="-2525" width="150" height="180" as="geometry"/>
                </mxCell>
                <mxCell id="312" value="Event" style="rounded=1;whiteSpace=wrap;html=1;verticalAlign=top;align=center;fontSize=18;fillColor=#d80073;fontColor=#ffffff;strokeColor=#A50040;container=1;dropTarget=1;recursiveResize=0;" parent="311" vertex="1">
                    <mxGeometry x="20" y="60" width="110" height="30" as="geometry"/>
                </mxCell>
                <mxCell id="313" value="Event" style="rounded=1;whiteSpace=wrap;html=1;verticalAlign=top;align=center;fontSize=18;fillColor=#d80073;fontColor=#ffffff;strokeColor=#A50040;container=1;dropTarget=1;recursiveResize=0;" parent="311" vertex="1">
                    <mxGeometry x="20" y="100" width="110" height="30" as="geometry"/>
                </mxCell>
                <mxCell id="314" value="Event" style="rounded=1;whiteSpace=wrap;html=1;verticalAlign=top;align=center;fontSize=18;fillColor=#d80073;fontColor=#ffffff;strokeColor=#A50040;container=1;dropTarget=1;recursiveResize=0;" parent="311" vertex="1">
                    <mxGeometry x="20" y="140" width="110" height="30" as="geometry"/>
                </mxCell>
                <mxCell id="318" style="edgeStyle=none;html=1;exitX=1;exitY=0.5;exitDx=0;exitDy=0;entryX=0;entryY=0.25;entryDx=0;entryDy=0;strokeWidth=4;fontSize=29;fillColor=#FFFF00;" parent="1" source="304" target="311" edge="1">
                    <mxGeometry relative="1" as="geometry"/>
                </mxCell>
                <mxCell id="319" style="edgeStyle=none;html=1;exitX=0.5;exitY=1;exitDx=0;exitDy=0;entryX=0;entryY=0.5;entryDx=0;entryDy=0;strokeWidth=4;fontSize=29;fillColor=#FFFF00;" parent="1" source="250" target="304" edge="1">
                    <mxGeometry relative="1" as="geometry"/>
                </mxCell>
                <mxCell id="320" style="edgeStyle=none;html=1;exitX=0.5;exitY=1;exitDx=0;exitDy=0;entryX=0;entryY=0.5;entryDx=0;entryDy=0;strokeWidth=4;fontSize=29;fillColor=#FFFF00;dashed=1;" parent="1" source="259" target="312" edge="1">
                    <mxGeometry relative="1" as="geometry">
                        <Array as="points">
                            <mxPoint x="2500" y="-2560"/>
                            <mxPoint x="2520" y="-2450"/>
                        </Array>
                    </mxGeometry>
                </mxCell>
                <mxCell id="321" value="EventListeners Buffer" style="rounded=1;whiteSpace=wrap;html=1;verticalAlign=top;align=center;fontSize=18;fillColor=#008a00;fontColor=#ffffff;strokeColor=#005700;container=1;dropTarget=1;recursiveResize=0;" parent="1" vertex="1">
                    <mxGeometry x="3550" y="-2480" width="150" height="300" as="geometry"/>
                </mxCell>
                <mxCell id="322" value="Event" style="rounded=1;whiteSpace=wrap;html=1;verticalAlign=top;align=center;fontSize=18;fillColor=#d80073;fontColor=#ffffff;strokeColor=#A50040;container=1;dropTarget=1;recursiveResize=0;" parent="321" vertex="1">
                    <mxGeometry x="20" y="60" width="110" height="30" as="geometry"/>
                </mxCell>
                <mxCell id="323" value="Event" style="rounded=1;whiteSpace=wrap;html=1;verticalAlign=top;align=center;fontSize=18;fillColor=#d80073;fontColor=#ffffff;strokeColor=#A50040;container=1;dropTarget=1;recursiveResize=0;" parent="321" vertex="1">
                    <mxGeometry x="20" y="100" width="110" height="30" as="geometry"/>
                </mxCell>
                <mxCell id="324" value="Event" style="rounded=1;whiteSpace=wrap;html=1;verticalAlign=top;align=center;fontSize=18;fillColor=#d80073;fontColor=#ffffff;strokeColor=#A50040;container=1;dropTarget=1;recursiveResize=0;" parent="321" vertex="1">
                    <mxGeometry x="20" y="140" width="110" height="30" as="geometry"/>
                </mxCell>
                <mxCell id="325" value="Event" style="rounded=1;whiteSpace=wrap;html=1;verticalAlign=top;align=center;fontSize=18;fillColor=#d80073;fontColor=#ffffff;strokeColor=#A50040;container=1;dropTarget=1;recursiveResize=0;" parent="321" vertex="1">
                    <mxGeometry x="20" y="180" width="110" height="30" as="geometry"/>
                </mxCell>
                <mxCell id="326" value="Event" style="rounded=1;whiteSpace=wrap;html=1;verticalAlign=top;align=center;fontSize=18;fillColor=#d80073;fontColor=#ffffff;strokeColor=#A50040;container=1;dropTarget=1;recursiveResize=0;" parent="321" vertex="1">
                    <mxGeometry x="20" y="220" width="110" height="30" as="geometry"/>
                </mxCell>
                <mxCell id="327" value="Event" style="rounded=1;whiteSpace=wrap;html=1;verticalAlign=top;align=center;fontSize=18;fillColor=#d80073;fontColor=#ffffff;strokeColor=#A50040;container=1;dropTarget=1;recursiveResize=0;" parent="321" vertex="1">
                    <mxGeometry x="20" y="260" width="110" height="30" as="geometry"/>
                </mxCell>
                <mxCell id="328" value="EventListeners Buffer" style="rounded=1;whiteSpace=wrap;html=1;verticalAlign=top;align=center;fontSize=18;fillColor=#008a00;fontColor=#ffffff;strokeColor=#005700;container=1;dropTarget=1;recursiveResize=0;" parent="1" vertex="1">
                    <mxGeometry x="3810" y="-2455" width="150" height="180" as="geometry"/>
                </mxCell>
                <mxCell id="329" value="Event" style="rounded=1;whiteSpace=wrap;html=1;verticalAlign=top;align=center;fontSize=18;fillColor=#d80073;fontColor=#ffffff;strokeColor=#A50040;container=1;dropTarget=1;recursiveResize=0;" parent="328" vertex="1">
                    <mxGeometry x="20" y="60" width="110" height="30" as="geometry"/>
                </mxCell>
                <mxCell id="330" value="Event" style="rounded=1;whiteSpace=wrap;html=1;verticalAlign=top;align=center;fontSize=18;fillColor=#d80073;fontColor=#ffffff;strokeColor=#A50040;container=1;dropTarget=1;recursiveResize=0;" parent="328" vertex="1">
                    <mxGeometry x="20" y="100" width="110" height="30" as="geometry"/>
                </mxCell>
                <mxCell id="331" value="Event" style="rounded=1;whiteSpace=wrap;html=1;verticalAlign=top;align=center;fontSize=18;fillColor=#d80073;fontColor=#ffffff;strokeColor=#A50040;container=1;dropTarget=1;recursiveResize=0;" parent="328" vertex="1">
                    <mxGeometry x="20" y="140" width="110" height="30" as="geometry"/>
                </mxCell>
                <mxCell id="332" style="edgeStyle=none;html=1;exitX=1;exitY=0.5;exitDx=0;exitDy=0;entryX=0;entryY=0.25;entryDx=0;entryDy=0;strokeWidth=4;fontSize=29;fillColor=#FFFF00;" parent="1" source="322" target="328" edge="1">
                    <mxGeometry relative="1" as="geometry"/>
                </mxCell>
                <mxCell id="333" style="edgeStyle=none;html=1;exitX=0.5;exitY=1;exitDx=0;exitDy=0;entryX=0;entryY=0.5;entryDx=0;entryDy=0;dashed=1;strokeWidth=4;fontSize=29;fillColor=#FFFF00;" parent="1" source="285" target="329" edge="1">
                    <mxGeometry relative="1" as="geometry">
                        <Array as="points">
                            <mxPoint x="3360" y="-2660"/>
                            <mxPoint x="3730" y="-2650"/>
                            <mxPoint x="3780" y="-2380"/>
                        </Array>
                    </mxGeometry>
                </mxCell>
                <mxCell id="334" style="edgeStyle=none;html=1;exitX=0.5;exitY=1;exitDx=0;exitDy=0;entryX=0;entryY=0.5;entryDx=0;entryDy=0;dashed=1;strokeWidth=4;fontSize=29;fillColor=#FFFF00;" parent="1" source="288" target="330" edge="1">
                    <mxGeometry relative="1" as="geometry">
                        <Array as="points">
                            <mxPoint x="3700" y="-2520"/>
                            <mxPoint x="3750" y="-2350"/>
                        </Array>
                    </mxGeometry>
                </mxCell>
                <mxCell id="335" value="Mesh" style="rounded=1;whiteSpace=wrap;html=1;verticalAlign=top;align=center;fontSize=18;fillColor=#0050ef;fontColor=#ffffff;strokeColor=#001DBC;dropTarget=1;recursiveResize=0;container=1;" vertex="1" parent="1">
                    <mxGeometry x="3950" y="-3700" width="490" height="370" as="geometry"/>
                </mxCell>
                <mxCell id="336" value="Mesh" style="rounded=1;whiteSpace=wrap;html=1;verticalAlign=top;align=center;fontSize=18;fillColor=#fa6800;fontColor=#FFFFFF;strokeColor=#C73500;container=1;dropTarget=1;recursiveResize=0;" vertex="1" parent="335">
                    <mxGeometry x="10" y="30" width="225" height="320" as="geometry"/>
                </mxCell>
                <mxCell id="339" value="Mesh" style="rounded=1;whiteSpace=wrap;html=1;verticalAlign=top;align=center;fontSize=18;fillColor=#d80073;fontColor=#ffffff;strokeColor=#A50040;container=1;dropTarget=1;recursiveResize=0;" vertex="1" parent="336">
                    <mxGeometry x="10" y="180" width="200" height="130" as="geometry"/>
                </mxCell>
                <mxCell id="341" value="Mesh" style="rounded=1;whiteSpace=wrap;html=1;verticalAlign=top;align=center;fontSize=18;fillColor=#008a00;fontColor=#ffffff;strokeColor=#005700;container=1;dropTarget=1;recursiveResize=0;" vertex="1" parent="339">
                    <mxGeometry x="15" y="35" width="80" height="80" as="geometry"/>
                </mxCell>
                <mxCell id="342" value="Mesh" style="rounded=1;whiteSpace=wrap;html=1;verticalAlign=top;align=center;fontSize=18;container=1;dropTarget=1;recursiveResize=0;" vertex="1" parent="339">
                    <mxGeometry x="105" y="35" width="80" height="80" as="geometry"/>
                </mxCell>
                <mxCell id="352" value="Mesh" style="rounded=1;whiteSpace=wrap;html=1;verticalAlign=top;align=center;fontSize=18;fillColor=#d80073;fontColor=#ffffff;strokeColor=#A50040;container=1;dropTarget=1;recursiveResize=0;" vertex="1" parent="336">
                    <mxGeometry x="10" y="40" width="200" height="130" as="geometry"/>
                </mxCell>
                <mxCell id="353" value="Mesh" style="rounded=1;whiteSpace=wrap;html=1;verticalAlign=top;align=center;fontSize=18;fillColor=#008a00;fontColor=#ffffff;strokeColor=#005700;container=1;dropTarget=1;recursiveResize=0;" vertex="1" parent="352">
                    <mxGeometry x="15" y="35" width="80" height="80" as="geometry"/>
                </mxCell>
                <mxCell id="354" value="Mesh" style="rounded=1;whiteSpace=wrap;html=1;verticalAlign=top;align=center;fontSize=18;container=1;dropTarget=1;recursiveResize=0;" vertex="1" parent="352">
                    <mxGeometry x="105" y="35" width="80" height="80" as="geometry"/>
                </mxCell>
                <mxCell id="355" value="Mesh" style="rounded=1;whiteSpace=wrap;html=1;verticalAlign=top;align=center;fontSize=18;fillColor=#fa6800;fontColor=#FFFFFF;strokeColor=#C73500;container=1;dropTarget=1;recursiveResize=0;" vertex="1" parent="335">
                    <mxGeometry x="250" y="30" width="225" height="320" as="geometry"/>
                </mxCell>
                <mxCell id="356" value="Mesh" style="rounded=1;whiteSpace=wrap;html=1;verticalAlign=top;align=center;fontSize=18;fillColor=#d80073;fontColor=#ffffff;strokeColor=#A50040;container=1;dropTarget=1;recursiveResize=0;" vertex="1" parent="355">
                    <mxGeometry x="10" y="180" width="200" height="130" as="geometry"/>
                </mxCell>
                <mxCell id="357" value="Mesh" style="rounded=1;whiteSpace=wrap;html=1;verticalAlign=top;align=center;fontSize=18;fillColor=#008a00;fontColor=#ffffff;strokeColor=#005700;container=1;dropTarget=1;recursiveResize=0;" vertex="1" parent="356">
                    <mxGeometry x="15" y="35" width="80" height="80" as="geometry"/>
                </mxCell>
                <mxCell id="358" value="Mesh" style="rounded=1;whiteSpace=wrap;html=1;verticalAlign=top;align=center;fontSize=18;container=1;dropTarget=1;recursiveResize=0;" vertex="1" parent="356">
                    <mxGeometry x="105" y="35" width="80" height="80" as="geometry"/>
                </mxCell>
                <mxCell id="359" value="Mesh" style="rounded=1;whiteSpace=wrap;html=1;verticalAlign=top;align=center;fontSize=18;fillColor=#d80073;fontColor=#ffffff;strokeColor=#A50040;container=1;dropTarget=1;recursiveResize=0;" vertex="1" parent="355">
                    <mxGeometry x="10" y="40" width="200" height="130" as="geometry"/>
                </mxCell>
                <mxCell id="360" value="Mesh" style="rounded=1;whiteSpace=wrap;html=1;verticalAlign=top;align=center;fontSize=18;fillColor=#008a00;fontColor=#ffffff;strokeColor=#005700;container=1;dropTarget=1;recursiveResize=0;" vertex="1" parent="359">
                    <mxGeometry x="15" y="35" width="80" height="80" as="geometry"/>
                </mxCell>
                <mxCell id="361" value="Mesh" style="rounded=1;whiteSpace=wrap;html=1;verticalAlign=top;align=center;fontSize=18;container=1;dropTarget=1;recursiveResize=0;" vertex="1" parent="359">
                    <mxGeometry x="105" y="35" width="80" height="80" as="geometry"/>
                </mxCell>
                <mxCell id="362" value="EventListeners Buffer" style="rounded=1;whiteSpace=wrap;html=1;verticalAlign=top;align=center;fontSize=18;fillColor=#008a00;fontColor=#ffffff;strokeColor=#005700;container=1;dropTarget=1;recursiveResize=0;" vertex="1" parent="1">
                    <mxGeometry x="4500" y="-3750" width="150" height="220" as="geometry"/>
                </mxCell>
                <mxCell id="363" value="Event" style="rounded=1;whiteSpace=wrap;html=1;verticalAlign=top;align=center;fontSize=18;fillColor=#d80073;fontColor=#ffffff;strokeColor=#A50040;container=1;dropTarget=1;recursiveResize=0;" vertex="1" parent="362">
                    <mxGeometry x="20" y="60" width="110" height="30" as="geometry"/>
                </mxCell>
                <mxCell id="364" value="Event" style="rounded=1;whiteSpace=wrap;html=1;verticalAlign=top;align=center;fontSize=18;fillColor=#d80073;fontColor=#ffffff;strokeColor=#A50040;container=1;dropTarget=1;recursiveResize=0;" vertex="1" parent="362">
                    <mxGeometry x="20" y="100" width="110" height="30" as="geometry"/>
                </mxCell>
                <mxCell id="365" value="Event" style="rounded=1;whiteSpace=wrap;html=1;verticalAlign=top;align=center;fontSize=18;fillColor=#d80073;fontColor=#ffffff;strokeColor=#A50040;container=1;dropTarget=1;recursiveResize=0;" vertex="1" parent="362">
                    <mxGeometry x="20" y="140" width="110" height="30" as="geometry"/>
                </mxCell>
                <mxCell id="366" value="Event" style="rounded=1;whiteSpace=wrap;html=1;verticalAlign=top;align=center;fontSize=18;fillColor=#d80073;fontColor=#ffffff;strokeColor=#A50040;container=1;dropTarget=1;recursiveResize=0;" vertex="1" parent="362">
                    <mxGeometry x="20" y="180" width="110" height="30" as="geometry"/>
                </mxCell>
                <mxCell id="369" style="edgeStyle=none;html=1;exitX=1;exitY=0.5;exitDx=0;exitDy=0;entryX=0;entryY=0.5;entryDx=0;entryDy=0;strokeWidth=4;dashed=1;strokeColor=#000000;" edge="1" parent="1" source="354" target="363">
                    <mxGeometry relative="1" as="geometry">
                        <Array as="points">
                            <mxPoint x="4190" y="-3680"/>
                        </Array>
                    </mxGeometry>
                </mxCell>
                <mxCell id="370" style="edgeStyle=none;html=1;exitX=1;exitY=0.5;exitDx=0;exitDy=0;entryX=0;entryY=0.5;entryDx=0;entryDy=0;dashed=1;strokeWidth=4;strokeColor=#000000;" edge="1" parent="1" source="342" target="364">
                    <mxGeometry relative="1" as="geometry">
                        <Array as="points">
                            <mxPoint x="4200" y="-3640"/>
                        </Array>
                    </mxGeometry>
                </mxCell>
                <mxCell id="371" style="edgeStyle=none;html=1;exitX=1;exitY=0.5;exitDx=0;exitDy=0;entryX=0;entryY=0.5;entryDx=0;entryDy=0;dashed=1;strokeWidth=4;strokeColor=#000000;" edge="1" parent="1" source="358" target="366">
                    <mxGeometry relative="1" as="geometry">
                        <Array as="points">
                            <mxPoint x="4440" y="-3555"/>
                        </Array>
                    </mxGeometry>
                </mxCell>
                <mxCell id="372" style="edgeStyle=none;html=1;exitX=1;exitY=0.5;exitDx=0;exitDy=0;dashed=1;strokeWidth=4;strokeColor=#000000;entryX=0;entryY=0.5;entryDx=0;entryDy=0;" edge="1" parent="1" source="361" target="365">
                    <mxGeometry relative="1" as="geometry">
                        <mxPoint x="4480" y="-3570" as="targetPoint"/>
                        <Array as="points">
                            <mxPoint x="4440" y="-3595"/>
                        </Array>
                    </mxGeometry>
                </mxCell>
                <mxCell id="373" value="Mesh" style="rounded=1;whiteSpace=wrap;html=1;verticalAlign=top;align=center;fontSize=18;fillColor=#0050ef;fontColor=#ffffff;strokeColor=#001DBC;dropTarget=1;recursiveResize=0;container=1;" vertex="1" parent="1">
                    <mxGeometry x="4840" y="-3700" width="490" height="370" as="geometry"/>
                </mxCell>
                <mxCell id="374" value="Mesh" style="rounded=1;whiteSpace=wrap;html=1;verticalAlign=top;align=center;fontSize=18;fillColor=#fa6800;fontColor=#FFFFFF;strokeColor=#C73500;container=1;dropTarget=1;recursiveResize=0;" vertex="1" parent="373">
                    <mxGeometry x="10" y="30" width="225" height="320" as="geometry"/>
                </mxCell>
                <mxCell id="375" value="Mesh" style="rounded=1;whiteSpace=wrap;html=1;verticalAlign=top;align=center;fontSize=18;fillColor=#d80073;fontColor=#ffffff;strokeColor=#A50040;container=1;dropTarget=1;recursiveResize=0;" vertex="1" parent="374">
                    <mxGeometry x="10" y="180" width="200" height="130" as="geometry"/>
                </mxCell>
                <mxCell id="376" value="Mesh" style="rounded=1;whiteSpace=wrap;html=1;verticalAlign=top;align=center;fontSize=18;fillColor=#008a00;fontColor=#ffffff;strokeColor=#005700;container=1;dropTarget=1;recursiveResize=0;" vertex="1" parent="375">
                    <mxGeometry x="15" y="35" width="80" height="80" as="geometry"/>
                </mxCell>
                <mxCell id="377" value="Mesh" style="rounded=1;whiteSpace=wrap;html=1;verticalAlign=top;align=center;fontSize=18;container=1;dropTarget=1;recursiveResize=0;" vertex="1" parent="375">
                    <mxGeometry x="105" y="35" width="80" height="80" as="geometry"/>
                </mxCell>
                <mxCell id="378" value="Mesh" style="rounded=1;whiteSpace=wrap;html=1;verticalAlign=top;align=center;fontSize=18;fillColor=#d80073;fontColor=#ffffff;strokeColor=#A50040;container=1;dropTarget=1;recursiveResize=0;" vertex="1" parent="374">
                    <mxGeometry x="10" y="40" width="200" height="130" as="geometry"/>
                </mxCell>
                <mxCell id="379" value="Mesh" style="rounded=1;whiteSpace=wrap;html=1;verticalAlign=top;align=center;fontSize=18;fillColor=#008a00;fontColor=#ffffff;strokeColor=#005700;container=1;dropTarget=1;recursiveResize=0;" vertex="1" parent="378">
                    <mxGeometry x="15" y="35" width="80" height="80" as="geometry"/>
                </mxCell>
                <mxCell id="380" value="Mesh" style="rounded=1;whiteSpace=wrap;html=1;verticalAlign=top;align=center;fontSize=18;container=1;dropTarget=1;recursiveResize=0;" vertex="1" parent="378">
                    <mxGeometry x="105" y="35" width="80" height="80" as="geometry"/>
                </mxCell>
                <mxCell id="381" value="Mesh" style="rounded=1;whiteSpace=wrap;html=1;verticalAlign=top;align=center;fontSize=18;fillColor=#fa6800;fontColor=#FFFFFF;strokeColor=#C73500;container=1;dropTarget=1;recursiveResize=0;" vertex="1" parent="373">
                    <mxGeometry x="250" y="30" width="225" height="320" as="geometry"/>
                </mxCell>
                <mxCell id="382" value="Mesh" style="rounded=1;whiteSpace=wrap;html=1;verticalAlign=top;align=center;fontSize=18;fillColor=#d80073;fontColor=#ffffff;strokeColor=#A50040;container=1;dropTarget=1;recursiveResize=0;" vertex="1" parent="381">
                    <mxGeometry x="10" y="180" width="200" height="130" as="geometry"/>
                </mxCell>
                <mxCell id="383" value="Mesh" style="rounded=1;whiteSpace=wrap;html=1;verticalAlign=top;align=center;fontSize=18;fillColor=#008a00;fontColor=#ffffff;strokeColor=#005700;container=1;dropTarget=1;recursiveResize=0;" vertex="1" parent="382">
                    <mxGeometry x="15" y="35" width="80" height="80" as="geometry"/>
                </mxCell>
                <mxCell id="384" value="Mesh" style="rounded=1;whiteSpace=wrap;html=1;verticalAlign=top;align=center;fontSize=18;container=1;dropTarget=1;recursiveResize=0;" vertex="1" parent="382">
                    <mxGeometry x="105" y="35" width="80" height="80" as="geometry"/>
                </mxCell>
                <mxCell id="385" value="Mesh" style="rounded=1;whiteSpace=wrap;html=1;verticalAlign=top;align=center;fontSize=18;fillColor=#d80073;fontColor=#ffffff;strokeColor=#A50040;container=1;dropTarget=1;recursiveResize=0;" vertex="1" parent="381">
                    <mxGeometry x="10" y="40" width="200" height="130" as="geometry"/>
                </mxCell>
                <mxCell id="386" value="Mesh" style="rounded=1;whiteSpace=wrap;html=1;verticalAlign=top;align=center;fontSize=18;fillColor=#008a00;fontColor=#ffffff;strokeColor=#005700;container=1;dropTarget=1;recursiveResize=0;" vertex="1" parent="385">
                    <mxGeometry x="15" y="35" width="80" height="80" as="geometry"/>
                </mxCell>
                <mxCell id="387" value="Mesh" style="rounded=1;whiteSpace=wrap;html=1;verticalAlign=top;align=center;fontSize=18;container=1;dropTarget=1;recursiveResize=0;" vertex="1" parent="385">
                    <mxGeometry x="105" y="35" width="80" height="80" as="geometry"/>
                </mxCell>
                <mxCell id="388" value="EventListeners Buffer" style="rounded=1;whiteSpace=wrap;html=1;verticalAlign=top;align=center;fontSize=18;fillColor=#008a00;fontColor=#ffffff;strokeColor=#005700;container=1;dropTarget=1;recursiveResize=0;" vertex="1" parent="1">
                    <mxGeometry x="5390" y="-3630" width="150" height="140" as="geometry"/>
                </mxCell>
                <mxCell id="389" value="Event" style="rounded=1;whiteSpace=wrap;html=1;verticalAlign=top;align=center;fontSize=18;fillColor=#d80073;fontColor=#ffffff;strokeColor=#A50040;container=1;dropTarget=1;recursiveResize=0;" vertex="1" parent="388">
                    <mxGeometry x="20" y="60" width="110" height="30" as="geometry"/>
                </mxCell>
                <mxCell id="390" value="Event" style="rounded=1;whiteSpace=wrap;html=1;verticalAlign=top;align=center;fontSize=18;fillColor=#d80073;fontColor=#ffffff;strokeColor=#A50040;container=1;dropTarget=1;recursiveResize=0;" vertex="1" parent="388">
                    <mxGeometry x="20" y="100" width="110" height="30" as="geometry"/>
                </mxCell>
                <mxCell id="397" style="edgeStyle=none;html=1;exitX=1;exitY=0.5;exitDx=0;exitDy=0;entryX=0;entryY=0.5;entryDx=0;entryDy=0;dashed=1;strokeWidth=4;" edge="1" parent="1" source="374" target="389">
                    <mxGeometry relative="1" as="geometry">
                        <Array as="points">
                            <mxPoint x="5280" y="-3510"/>
                        </Array>
                    </mxGeometry>
                </mxCell>
                <mxCell id="398" style="edgeStyle=none;html=1;exitX=1;exitY=0.5;exitDx=0;exitDy=0;entryX=0;entryY=0.5;entryDx=0;entryDy=0;dashed=1;strokeWidth=4;" edge="1" parent="1" source="381" target="390">
                    <mxGeometry relative="1" as="geometry"/>
                </mxCell>
                <mxCell id="399" value="EventListeners Buffer" style="rounded=1;whiteSpace=wrap;html=1;verticalAlign=top;align=center;fontSize=18;fillColor=#008a00;fontColor=#ffffff;strokeColor=#005700;container=1;dropTarget=1;recursiveResize=0;" vertex="1" parent="1">
                    <mxGeometry x="5630" y="-3520" width="150" height="140" as="geometry"/>
                </mxCell>
                <mxCell id="400" value="Event" style="rounded=1;whiteSpace=wrap;html=1;verticalAlign=top;align=center;fontSize=18;fillColor=#d80073;fontColor=#ffffff;strokeColor=#A50040;container=1;dropTarget=1;recursiveResize=0;" vertex="1" parent="399">
                    <mxGeometry x="20" y="60" width="110" height="30" as="geometry"/>
                </mxCell>
                <mxCell id="401" value="Event" style="rounded=1;whiteSpace=wrap;html=1;verticalAlign=top;align=center;fontSize=18;fillColor=#d80073;fontColor=#ffffff;strokeColor=#A50040;container=1;dropTarget=1;recursiveResize=0;" vertex="1" parent="399">
                    <mxGeometry x="20" y="100" width="110" height="30" as="geometry"/>
                </mxCell>
                <mxCell id="402" value="EventListeners Buffer" style="rounded=1;whiteSpace=wrap;html=1;verticalAlign=top;align=center;fontSize=18;fillColor=#008a00;fontColor=#ffffff;strokeColor=#005700;container=1;dropTarget=1;recursiveResize=0;" vertex="1" parent="1">
                    <mxGeometry x="5630" y="-3810" width="150" height="140" as="geometry"/>
                </mxCell>
                <mxCell id="403" value="Event" style="rounded=1;whiteSpace=wrap;html=1;verticalAlign=top;align=center;fontSize=18;fillColor=#d80073;fontColor=#ffffff;strokeColor=#A50040;container=1;dropTarget=1;recursiveResize=0;" vertex="1" parent="402">
                    <mxGeometry x="20" y="60" width="110" height="30" as="geometry"/>
                </mxCell>
                <mxCell id="404" value="Event" style="rounded=1;whiteSpace=wrap;html=1;verticalAlign=top;align=center;fontSize=18;fillColor=#d80073;fontColor=#ffffff;strokeColor=#A50040;container=1;dropTarget=1;recursiveResize=0;" vertex="1" parent="402">
                    <mxGeometry x="20" y="100" width="110" height="30" as="geometry"/>
                </mxCell>
                <mxCell id="405" style="edgeStyle=none;html=1;exitX=1;exitY=0.5;exitDx=0;exitDy=0;entryX=0;entryY=0.25;entryDx=0;entryDy=0;dashed=1;strokeWidth=4;" edge="1" parent="1" source="389" target="402">
                    <mxGeometry relative="1" as="geometry">
                        <Array as="points">
                            <mxPoint x="5550" y="-3570"/>
                            <mxPoint x="5590" y="-3775"/>
                        </Array>
                    </mxGeometry>
                </mxCell>
                <mxCell id="406" style="edgeStyle=none;html=1;exitX=1;exitY=0.5;exitDx=0;exitDy=0;entryX=0;entryY=0.25;entryDx=0;entryDy=0;dashed=1;strokeWidth=4;" edge="1" parent="1" source="390" target="399">
                    <mxGeometry relative="1" as="geometry">
                        <Array as="points">
                            <mxPoint x="5550" y="-3515"/>
                            <mxPoint x="5590" y="-3485"/>
                        </Array>
                    </mxGeometry>
                </mxCell>
                <mxCell id="407" style="edgeStyle=none;html=1;exitX=1;exitY=0.5;exitDx=0;exitDy=0;entryX=0;entryY=0.5;entryDx=0;entryDy=0;dashed=1;strokeWidth=4;strokeColor=#000000;" edge="1" parent="1" source="380" target="403">
                    <mxGeometry relative="1" as="geometry">
                        <Array as="points">
                            <mxPoint x="5060" y="-3630"/>
                            <mxPoint x="5080" y="-3670"/>
                            <mxPoint x="5160" y="-3735"/>
                        </Array>
                    </mxGeometry>
                </mxCell>
                <mxCell id="408" style="edgeStyle=none;html=1;exitX=1;exitY=0.5;exitDx=0;exitDy=0;entryX=0;entryY=0.5;entryDx=0;entryDy=0;dashed=1;strokeColor=#000000;strokeWidth=4;" edge="1" parent="1" source="377" target="404">
                    <mxGeometry relative="1" as="geometry">
                        <Array as="points">
                            <mxPoint x="5090" y="-3650"/>
                            <mxPoint x="5160" y="-3690"/>
                        </Array>
                    </mxGeometry>
                </mxCell>
                <mxCell id="409" style="edgeStyle=none;html=1;exitX=1;exitY=0.5;exitDx=0;exitDy=0;entryX=0;entryY=0.5;entryDx=0;entryDy=0;dashed=1;strokeColor=#000000;strokeWidth=4;" edge="1" parent="1" source="387" target="400">
                    <mxGeometry relative="1" as="geometry">
                        <Array as="points">
                            <mxPoint x="5360" y="-3450"/>
                        </Array>
                    </mxGeometry>
                </mxCell>
                <mxCell id="410" style="edgeStyle=none;html=1;exitX=1;exitY=0.5;exitDx=0;exitDy=0;entryX=0;entryY=0.5;entryDx=0;entryDy=0;dashed=1;strokeColor=#000000;strokeWidth=4;" edge="1" parent="1" source="384" target="401">
                    <mxGeometry relative="1" as="geometry"/>
                </mxCell>
                <mxCell id="411" value="Run-&amp;gt;&lt;br&gt;4 times" style="rounded=1;whiteSpace=wrap;html=1;verticalAlign=top;align=center;fontSize=18;fillColor=#1ba1e2;fontColor=#ffffff;strokeColor=#006EAF;container=1;dropTarget=1;recursiveResize=0;" vertex="1" parent="1">
                    <mxGeometry x="4517.5" y="-3830" width="115" height="60" as="geometry"/>
                </mxCell>
                <mxCell id="414" value="Run-&amp;gt; 2 times&lt;br&gt;If hover&lt;br&gt;Run-&amp;gt;&amp;nbsp;2 times" style="rounded=1;whiteSpace=wrap;html=1;verticalAlign=top;align=center;fontSize=18;fillColor=#1ba1e2;fontColor=#ffffff;strokeColor=#006EAF;container=1;dropTarget=1;recursiveResize=0;" vertex="1" parent="1">
                    <mxGeometry x="5520" y="-3950" width="170" height="80" as="geometry"/>
                </mxCell>
                <mxCell id="451" style="edgeStyle=none;html=1;exitX=0.5;exitY=1;exitDx=0;exitDy=0;entryX=0.5;entryY=0;entryDx=0;entryDy=0;dashed=1;strokeColor=#FFFFFF;strokeWidth=4;" edge="1" parent="1" source="415" target="448">
                    <mxGeometry relative="1" as="geometry"/>
                </mxCell>
                <mxCell id="415" value="Mesh" style="rounded=1;whiteSpace=wrap;html=1;verticalAlign=top;align=center;fontSize=18;fillColor=#0050ef;fontColor=#ffffff;strokeColor=#001DBC;dropTarget=1;recursiveResize=0;container=1;" vertex="1" parent="1">
                    <mxGeometry x="5970" y="-3700" width="490" height="370" as="geometry"/>
                </mxCell>
                <mxCell id="416" value="Mesh" style="rounded=1;whiteSpace=wrap;html=1;verticalAlign=top;align=center;fontSize=18;fillColor=#fa6800;fontColor=#FFFFFF;strokeColor=#C73500;container=1;dropTarget=1;recursiveResize=0;" vertex="1" parent="415">
                    <mxGeometry x="10" y="30" width="225" height="320" as="geometry"/>
                </mxCell>
                <mxCell id="417" value="Mesh" style="rounded=1;whiteSpace=wrap;html=1;verticalAlign=top;align=center;fontSize=18;fillColor=#d80073;fontColor=#ffffff;strokeColor=#A50040;container=1;dropTarget=1;recursiveResize=0;" vertex="1" parent="416">
                    <mxGeometry x="10" y="180" width="200" height="130" as="geometry"/>
                </mxCell>
                <mxCell id="418" value="Mesh" style="rounded=1;whiteSpace=wrap;html=1;verticalAlign=top;align=center;fontSize=18;fillColor=#008a00;fontColor=#ffffff;strokeColor=#005700;container=1;dropTarget=1;recursiveResize=0;" vertex="1" parent="417">
                    <mxGeometry x="15" y="35" width="80" height="80" as="geometry"/>
                </mxCell>
                <mxCell id="419" value="Mesh" style="rounded=1;whiteSpace=wrap;html=1;verticalAlign=top;align=center;fontSize=18;container=1;dropTarget=1;recursiveResize=0;" vertex="1" parent="417">
                    <mxGeometry x="105" y="35" width="80" height="80" as="geometry"/>
                </mxCell>
                <mxCell id="420" value="Mesh" style="rounded=1;whiteSpace=wrap;html=1;verticalAlign=top;align=center;fontSize=18;fillColor=#d80073;fontColor=#ffffff;strokeColor=#A50040;container=1;dropTarget=1;recursiveResize=0;" vertex="1" parent="416">
                    <mxGeometry x="10" y="40" width="200" height="130" as="geometry"/>
                </mxCell>
                <mxCell id="421" value="Mesh" style="rounded=1;whiteSpace=wrap;html=1;verticalAlign=top;align=center;fontSize=18;fillColor=#008a00;fontColor=#ffffff;strokeColor=#005700;container=1;dropTarget=1;recursiveResize=0;" vertex="1" parent="420">
                    <mxGeometry x="15" y="35" width="80" height="80" as="geometry"/>
                </mxCell>
                <mxCell id="422" value="Mesh" style="rounded=1;whiteSpace=wrap;html=1;verticalAlign=top;align=center;fontSize=18;container=1;dropTarget=1;recursiveResize=0;" vertex="1" parent="420">
                    <mxGeometry x="105" y="35" width="80" height="80" as="geometry"/>
                </mxCell>
                <mxCell id="423" value="Mesh" style="rounded=1;whiteSpace=wrap;html=1;verticalAlign=top;align=center;fontSize=18;fillColor=#fa6800;fontColor=#FFFFFF;strokeColor=#C73500;container=1;dropTarget=1;recursiveResize=0;" vertex="1" parent="415">
                    <mxGeometry x="250" y="30" width="225" height="320" as="geometry"/>
                </mxCell>
                <mxCell id="424" value="Mesh" style="rounded=1;whiteSpace=wrap;html=1;verticalAlign=top;align=center;fontSize=18;fillColor=#d80073;fontColor=#ffffff;strokeColor=#A50040;container=1;dropTarget=1;recursiveResize=0;" vertex="1" parent="423">
                    <mxGeometry x="10" y="180" width="200" height="130" as="geometry"/>
                </mxCell>
                <mxCell id="425" value="Mesh" style="rounded=1;whiteSpace=wrap;html=1;verticalAlign=top;align=center;fontSize=18;fillColor=#008a00;fontColor=#ffffff;strokeColor=#005700;container=1;dropTarget=1;recursiveResize=0;" vertex="1" parent="424">
                    <mxGeometry x="15" y="35" width="80" height="80" as="geometry"/>
                </mxCell>
                <mxCell id="426" value="Mesh" style="rounded=1;whiteSpace=wrap;html=1;verticalAlign=top;align=center;fontSize=18;container=1;dropTarget=1;recursiveResize=0;" vertex="1" parent="424">
                    <mxGeometry x="105" y="35" width="80" height="80" as="geometry"/>
                </mxCell>
                <mxCell id="427" value="Mesh" style="rounded=1;whiteSpace=wrap;html=1;verticalAlign=top;align=center;fontSize=18;fillColor=#d80073;fontColor=#ffffff;strokeColor=#A50040;container=1;dropTarget=1;recursiveResize=0;" vertex="1" parent="423">
                    <mxGeometry x="10" y="40" width="200" height="130" as="geometry"/>
                </mxCell>
                <mxCell id="428" value="Mesh" style="rounded=1;whiteSpace=wrap;html=1;verticalAlign=top;align=center;fontSize=18;fillColor=#008a00;fontColor=#ffffff;strokeColor=#005700;container=1;dropTarget=1;recursiveResize=0;" vertex="1" parent="427">
                    <mxGeometry x="15" y="35" width="80" height="80" as="geometry"/>
                </mxCell>
                <mxCell id="429" value="Mesh" style="rounded=1;whiteSpace=wrap;html=1;verticalAlign=top;align=center;fontSize=18;container=1;dropTarget=1;recursiveResize=0;" vertex="1" parent="427">
                    <mxGeometry x="105" y="35" width="80" height="80" as="geometry"/>
                </mxCell>
                <mxCell id="447" value="Run-&amp;gt; 1 times" style="rounded=1;whiteSpace=wrap;html=1;verticalAlign=top;align=center;fontSize=18;fillColor=#1ba1e2;fontColor=#ffffff;strokeColor=#006EAF;container=1;dropTarget=1;recursiveResize=0;" vertex="1" parent="1">
                    <mxGeometry x="6230" y="-3260" width="140" height="40" as="geometry"/>
                </mxCell>
                <mxCell id="448" value="EventListeners Buffer" style="rounded=1;whiteSpace=wrap;html=1;verticalAlign=top;align=center;fontSize=18;fillColor=#008a00;fontColor=#ffffff;strokeColor=#005700;container=1;dropTarget=1;recursiveResize=0;" vertex="1" parent="1">
                    <mxGeometry x="6140" y="-3200" width="150" height="100" as="geometry"/>
                </mxCell>
                <mxCell id="449" value="Event" style="rounded=1;whiteSpace=wrap;html=1;verticalAlign=top;align=center;fontSize=18;fillColor=#d80073;fontColor=#ffffff;strokeColor=#A50040;container=1;dropTarget=1;recursiveResize=0;" vertex="1" parent="448">
                    <mxGeometry x="20" y="60" width="110" height="30" as="geometry"/>
                </mxCell>
                <mxCell id="452" value="EventListeners Buffer" style="rounded=1;whiteSpace=wrap;html=1;verticalAlign=top;align=center;fontSize=18;fillColor=#008a00;fontColor=#ffffff;strokeColor=#005700;container=1;dropTarget=1;recursiveResize=0;" vertex="1" parent="1">
                    <mxGeometry x="6550" y="-3123" width="150" height="140" as="geometry"/>
                </mxCell>
                <mxCell id="453" value="Event" style="rounded=1;whiteSpace=wrap;html=1;verticalAlign=top;align=center;fontSize=18;fillColor=#d80073;fontColor=#ffffff;strokeColor=#A50040;container=1;dropTarget=1;recursiveResize=0;" vertex="1" parent="452">
                    <mxGeometry x="20" y="60" width="110" height="30" as="geometry"/>
                </mxCell>
                <mxCell id="454" value="Event" style="rounded=1;whiteSpace=wrap;html=1;verticalAlign=top;align=center;fontSize=18;fillColor=#d80073;fontColor=#ffffff;strokeColor=#A50040;container=1;dropTarget=1;recursiveResize=0;" vertex="1" parent="452">
                    <mxGeometry x="20" y="100" width="110" height="30" as="geometry"/>
                </mxCell>
                <mxCell id="455" value="EventListeners Buffer" style="rounded=1;whiteSpace=wrap;html=1;verticalAlign=top;align=center;fontSize=18;fillColor=#008a00;fontColor=#ffffff;strokeColor=#005700;container=1;dropTarget=1;recursiveResize=0;" vertex="1" parent="1">
                    <mxGeometry x="7000" y="-3138" width="150" height="140" as="geometry"/>
                </mxCell>
                <mxCell id="456" value="Event" style="rounded=1;whiteSpace=wrap;html=1;verticalAlign=top;align=center;fontSize=18;fillColor=#d80073;fontColor=#ffffff;strokeColor=#A50040;container=1;dropTarget=1;recursiveResize=0;" vertex="1" parent="455">
                    <mxGeometry x="20" y="60" width="110" height="30" as="geometry"/>
                </mxCell>
                <mxCell id="457" value="Event" style="rounded=1;whiteSpace=wrap;html=1;verticalAlign=top;align=center;fontSize=18;fillColor=#d80073;fontColor=#ffffff;strokeColor=#A50040;container=1;dropTarget=1;recursiveResize=0;" vertex="1" parent="455">
                    <mxGeometry x="20" y="100" width="110" height="30" as="geometry"/>
                </mxCell>
                <mxCell id="462" style="edgeStyle=none;html=1;exitX=1;exitY=0.5;exitDx=0;exitDy=0;entryX=0;entryY=0;entryDx=0;entryDy=0;dashed=1;strokeColor=#FFFFFF;strokeWidth=4;" edge="1" parent="1" source="460" target="452">
                    <mxGeometry relative="1" as="geometry"/>
                </mxCell>
                <mxCell id="460" value="&lt;span style=&quot;font-size: 18px;&quot;&gt;If hover&lt;/span&gt;" style="ellipse;whiteSpace=wrap;html=1;fillColor=#0050ef;fontColor=#ffffff;strokeColor=#001DBC;" vertex="1" parent="1">
                    <mxGeometry x="6340" y="-3163" width="120" height="80" as="geometry"/>
                </mxCell>
                <mxCell id="461" style="edgeStyle=none;html=1;exitX=1;exitY=0.5;exitDx=0;exitDy=0;entryX=0;entryY=0.5;entryDx=0;entryDy=0;dashed=1;strokeColor=#FFFFFF;strokeWidth=4;" edge="1" parent="1" source="449" target="460">
                    <mxGeometry relative="1" as="geometry"/>
                </mxCell>
                <mxCell id="467" style="edgeStyle=none;html=1;exitX=1;exitY=0.5;exitDx=0;exitDy=0;entryX=0;entryY=0;entryDx=0;entryDy=0;dashed=1;strokeColor=#FFFFFF;strokeWidth=4;fontColor=#FFFFFF;" edge="1" parent="1" source="463" target="455">
                    <mxGeometry relative="1" as="geometry"/>
                </mxCell>
                <mxCell id="463" value="&lt;span style=&quot;font-size: 18px;&quot;&gt;If hover&lt;/span&gt;" style="ellipse;whiteSpace=wrap;html=1;fillColor=#fa6800;fontColor=#FFFFFF;strokeColor=#C73500;" vertex="1" parent="1">
                    <mxGeometry x="6780" y="-3140" width="120" height="80" as="geometry"/>
                </mxCell>
                <mxCell id="471" style="edgeStyle=none;html=1;exitX=1;exitY=0.5;exitDx=0;exitDy=0;entryX=0;entryY=0;entryDx=0;entryDy=0;dashed=1;strokeColor=#FFFFFF;strokeWidth=4;fontColor=#FFFFFF;" edge="1" parent="1" source="464" target="468">
                    <mxGeometry relative="1" as="geometry"/>
                </mxCell>
                <mxCell id="464" value="&lt;span style=&quot;font-size: 18px;&quot;&gt;If hover&lt;/span&gt;" style="ellipse;whiteSpace=wrap;html=1;fillColor=#fa6800;fontColor=#FFFFFF;strokeColor=#C73500;" vertex="1" parent="1">
                    <mxGeometry x="6780" y="-3023" width="120" height="80" as="geometry"/>
                </mxCell>
                <mxCell id="465" style="edgeStyle=none;html=1;exitX=1;exitY=0.5;exitDx=0;exitDy=0;entryX=0;entryY=0.5;entryDx=0;entryDy=0;dashed=1;strokeColor=#FFFFFF;strokeWidth=4;" edge="1" parent="1" source="453" target="463">
                    <mxGeometry relative="1" as="geometry"/>
                </mxCell>
                <mxCell id="466" style="edgeStyle=none;html=1;exitX=1;exitY=0.5;exitDx=0;exitDy=0;entryX=0;entryY=0.5;entryDx=0;entryDy=0;dashed=1;strokeColor=#FFFFFF;strokeWidth=4;" edge="1" parent="1" source="454" target="464">
                    <mxGeometry relative="1" as="geometry"/>
                </mxCell>
                <mxCell id="468" value="EventListeners Buffer" style="rounded=1;whiteSpace=wrap;html=1;verticalAlign=top;align=center;fontSize=18;fillColor=#008a00;fontColor=#ffffff;strokeColor=#005700;container=1;dropTarget=1;recursiveResize=0;" vertex="1" parent="1">
                    <mxGeometry x="7000" y="-2910" width="150" height="140" as="geometry"/>
                </mxCell>
                <mxCell id="469" value="Event" style="rounded=1;whiteSpace=wrap;html=1;verticalAlign=top;align=center;fontSize=18;fillColor=#d80073;fontColor=#ffffff;strokeColor=#A50040;container=1;dropTarget=1;recursiveResize=0;" vertex="1" parent="468">
                    <mxGeometry x="20" y="60" width="110" height="30" as="geometry"/>
                </mxCell>
                <mxCell id="470" value="Event" style="rounded=1;whiteSpace=wrap;html=1;verticalAlign=top;align=center;fontSize=18;fillColor=#d80073;fontColor=#ffffff;strokeColor=#A50040;container=1;dropTarget=1;recursiveResize=0;" vertex="1" parent="468">
                    <mxGeometry x="20" y="100" width="110" height="30" as="geometry"/>
                </mxCell>
                <mxCell id="472" value="&lt;span style=&quot;font-size: 18px;&quot;&gt;If hover&lt;/span&gt;" style="ellipse;whiteSpace=wrap;html=1;fillColor=#000000;fontColor=#FFFFFF;strokeColor=#4D4D4D;" vertex="1" parent="1">
                    <mxGeometry x="7250" y="-3140" width="120" height="80" as="geometry"/>
                </mxCell>
                <mxCell id="473" value="&lt;span style=&quot;font-size: 18px;&quot;&gt;If hover&lt;/span&gt;" style="ellipse;whiteSpace=wrap;html=1;fillColor=#000000;fontColor=#FFFFFF;strokeColor=#4D4D4D;" vertex="1" parent="1">
                    <mxGeometry x="7250" y="-3050" width="120" height="80" as="geometry"/>
                </mxCell>
                <mxCell id="474" value="&lt;span style=&quot;font-size: 18px;&quot;&gt;If hover&lt;/span&gt;" style="ellipse;whiteSpace=wrap;html=1;fillColor=#000000;fontColor=#FFFFFF;strokeColor=#4D4D4D;" vertex="1" parent="1">
                    <mxGeometry x="7250" y="-2899" width="120" height="80" as="geometry"/>
                </mxCell>
                <mxCell id="475" value="&lt;span style=&quot;font-size: 18px;&quot;&gt;If hover&lt;/span&gt;" style="ellipse;whiteSpace=wrap;html=1;fillColor=#000000;fontColor=#FFFFFF;strokeColor=#4D4D4D;" vertex="1" parent="1">
                    <mxGeometry x="7250" y="-2809" width="120" height="80" as="geometry"/>
                </mxCell>
                <mxCell id="476" style="edgeStyle=none;html=1;exitX=1;exitY=0.5;exitDx=0;exitDy=0;entryX=0;entryY=0.5;entryDx=0;entryDy=0;dashed=1;strokeColor=#000000;strokeWidth=4;fontColor=#FFFFFF;" edge="1" parent="1" source="456" target="472">
                    <mxGeometry relative="1" as="geometry"/>
                </mxCell>
                <mxCell id="477" style="edgeStyle=none;html=1;exitX=1;exitY=0.5;exitDx=0;exitDy=0;entryX=0;entryY=0.5;entryDx=0;entryDy=0;dashed=1;strokeColor=#000000;strokeWidth=4;fontColor=#FFFFFF;" edge="1" parent="1" source="457" target="473">
                    <mxGeometry relative="1" as="geometry"/>
                </mxCell>
                <mxCell id="478" style="edgeStyle=none;html=1;exitX=1;exitY=0.5;exitDx=0;exitDy=0;entryX=0;entryY=0.5;entryDx=0;entryDy=0;dashed=1;strokeColor=#000000;strokeWidth=4;fontColor=#FFFFFF;" edge="1" parent="1" source="469" target="474">
                    <mxGeometry relative="1" as="geometry"/>
                </mxCell>
                <mxCell id="479" style="edgeStyle=none;html=1;exitX=1;exitY=0.5;exitDx=0;exitDy=0;entryX=0;entryY=0.5;entryDx=0;entryDy=0;dashed=1;strokeColor=#000000;strokeWidth=4;fontColor=#FFFFFF;" edge="1" parent="1" source="470" target="475">
                    <mxGeometry relative="1" as="geometry"/>
                </mxCell>
                <mxCell id="480" value="Run-&amp;gt; 2 times" style="rounded=1;whiteSpace=wrap;html=1;verticalAlign=top;align=center;fontSize=18;fillColor=#1ba1e2;fontColor=#ffffff;strokeColor=#006EAF;container=1;dropTarget=1;recursiveResize=0;" vertex="1" parent="1">
                    <mxGeometry x="6555" y="-3203" width="140" height="40" as="geometry"/>
                </mxCell>
                <mxCell id="481" value="Run-&amp;gt; 2 times" style="rounded=1;whiteSpace=wrap;html=1;verticalAlign=top;align=center;fontSize=18;fillColor=#1ba1e2;fontColor=#ffffff;strokeColor=#006EAF;container=1;dropTarget=1;recursiveResize=0;" vertex="1" parent="1">
                    <mxGeometry x="7010" y="-3210" width="140" height="40" as="geometry"/>
                </mxCell>
                <mxCell id="482" value="Run-&amp;gt; 2 times" style="rounded=1;whiteSpace=wrap;html=1;verticalAlign=top;align=center;fontSize=18;fillColor=#1ba1e2;fontColor=#ffffff;strokeColor=#006EAF;container=1;dropTarget=1;recursiveResize=0;" vertex="1" parent="1">
                    <mxGeometry x="7010" y="-2970" width="140" height="40" as="geometry"/>
                </mxCell>
                <mxCell id="547" style="edgeStyle=none;html=1;exitX=0.5;exitY=1;exitDx=0;exitDy=0;entryX=0.5;entryY=0;entryDx=0;entryDy=0;dashed=1;strokeColor=#FFFFFF;strokeWidth=4;fontSize=29;fontColor=#FFFFFF;" edge="1" parent="1" source="483" target="516">
                    <mxGeometry relative="1" as="geometry"/>
                </mxCell>
                <mxCell id="483" value="Mesh" style="rounded=1;whiteSpace=wrap;html=1;verticalAlign=top;align=center;fontSize=18;fillColor=#0050ef;fontColor=#ffffff;strokeColor=#001DBC;dropTarget=1;recursiveResize=0;container=1;arcSize=6;" vertex="1" parent="1">
                    <mxGeometry x="7690" y="-3720" width="650" height="350" as="geometry"/>
                </mxCell>
                <mxCell id="484" value="Mesh" style="rounded=1;whiteSpace=wrap;html=1;verticalAlign=top;align=center;fontSize=18;fillColor=#fa6800;fontColor=#FFFFFF;strokeColor=#C73500;container=1;dropTarget=1;recursiveResize=0;arcSize=4;" vertex="1" parent="483">
                    <mxGeometry x="10" y="30" width="310" height="310" as="geometry"/>
                </mxCell>
                <mxCell id="488" value="Mesh" style="rounded=1;whiteSpace=wrap;html=1;verticalAlign=top;align=center;fontSize=18;fillColor=#d80073;fontColor=#ffffff;strokeColor=#A50040;container=1;dropTarget=1;recursiveResize=0;arcSize=6;" vertex="1" parent="484">
                    <mxGeometry x="10" y="30" width="290" height="130" as="geometry"/>
                </mxCell>
                <mxCell id="490" value="* 100" style="rounded=1;whiteSpace=wrap;html=1;verticalAlign=middle;align=center;fontSize=18;container=1;dropTarget=1;recursiveResize=0;" vertex="1" parent="488">
                    <mxGeometry x="105" y="30" width="80" height="80" as="geometry"/>
                </mxCell>
                <mxCell id="499" value="Mesh" style="rounded=1;whiteSpace=wrap;html=1;verticalAlign=middle;align=center;fontSize=18;container=1;dropTarget=1;recursiveResize=0;" vertex="1" parent="488">
                    <mxGeometry x="10" y="30" width="80" height="80" as="geometry"/>
                </mxCell>
                <mxCell id="501" value="&lt;font style=&quot;font-size: 29px;&quot;&gt;...&lt;/font&gt;" style="rounded=1;whiteSpace=wrap;html=1;verticalAlign=bottom;align=center;fontSize=18;container=1;dropTarget=1;recursiveResize=0;" vertex="1" parent="488">
                    <mxGeometry x="200" y="30" width="80" height="80" as="geometry"/>
                </mxCell>
                <mxCell id="502" value="Mesh" style="rounded=1;whiteSpace=wrap;html=1;verticalAlign=top;align=center;fontSize=18;fillColor=#d80073;fontColor=#ffffff;strokeColor=#A50040;container=1;dropTarget=1;recursiveResize=0;arcSize=6;" vertex="1" parent="484">
                    <mxGeometry x="10" y="170" width="290" height="130" as="geometry"/>
                </mxCell>
                <mxCell id="503" value="* 100" style="rounded=1;whiteSpace=wrap;html=1;verticalAlign=middle;align=center;fontSize=18;container=1;dropTarget=1;recursiveResize=0;" vertex="1" parent="502">
                    <mxGeometry x="105" y="30" width="80" height="80" as="geometry"/>
                </mxCell>
                <mxCell id="504" value="Mesh" style="rounded=1;whiteSpace=wrap;html=1;verticalAlign=middle;align=center;fontSize=18;container=1;dropTarget=1;recursiveResize=0;" vertex="1" parent="502">
                    <mxGeometry x="10" y="30" width="80" height="80" as="geometry"/>
                </mxCell>
                <mxCell id="505" value="&lt;font style=&quot;font-size: 29px;&quot;&gt;...&lt;/font&gt;" style="rounded=1;whiteSpace=wrap;html=1;verticalAlign=bottom;align=center;fontSize=18;container=1;dropTarget=1;recursiveResize=0;" vertex="1" parent="502">
                    <mxGeometry x="200" y="30" width="80" height="80" as="geometry"/>
                </mxCell>
                <mxCell id="506" value="Mesh" style="rounded=1;whiteSpace=wrap;html=1;verticalAlign=top;align=center;fontSize=18;fillColor=#fa6800;fontColor=#FFFFFF;strokeColor=#C73500;container=1;dropTarget=1;recursiveResize=0;arcSize=4;" vertex="1" parent="483">
                    <mxGeometry x="330" y="30" width="310" height="310" as="geometry"/>
                </mxCell>
                <mxCell id="507" value="Mesh" style="rounded=1;whiteSpace=wrap;html=1;verticalAlign=top;align=center;fontSize=18;fillColor=#d80073;fontColor=#ffffff;strokeColor=#A50040;container=1;dropTarget=1;recursiveResize=0;arcSize=6;" vertex="1" parent="506">
                    <mxGeometry x="10" y="30" width="290" height="130" as="geometry"/>
                </mxCell>
                <mxCell id="508" value="* 100" style="rounded=1;whiteSpace=wrap;html=1;verticalAlign=middle;align=center;fontSize=18;container=1;dropTarget=1;recursiveResize=0;" vertex="1" parent="507">
                    <mxGeometry x="105" y="30" width="80" height="80" as="geometry"/>
                </mxCell>
                <mxCell id="509" value="Mesh" style="rounded=1;whiteSpace=wrap;html=1;verticalAlign=middle;align=center;fontSize=18;container=1;dropTarget=1;recursiveResize=0;" vertex="1" parent="507">
                    <mxGeometry x="10" y="30" width="80" height="80" as="geometry"/>
                </mxCell>
                <mxCell id="510" value="&lt;font style=&quot;font-size: 29px;&quot;&gt;...&lt;/font&gt;" style="rounded=1;whiteSpace=wrap;html=1;verticalAlign=bottom;align=center;fontSize=18;container=1;dropTarget=1;recursiveResize=0;" vertex="1" parent="507">
                    <mxGeometry x="200" y="30" width="80" height="80" as="geometry"/>
                </mxCell>
                <mxCell id="511" value="Mesh" style="rounded=1;whiteSpace=wrap;html=1;verticalAlign=top;align=center;fontSize=18;fillColor=#d80073;fontColor=#ffffff;strokeColor=#A50040;container=1;dropTarget=1;recursiveResize=0;arcSize=6;" vertex="1" parent="506">
                    <mxGeometry x="10" y="170" width="290" height="130" as="geometry"/>
                </mxCell>
                <mxCell id="512" value="* 100" style="rounded=1;whiteSpace=wrap;html=1;verticalAlign=middle;align=center;fontSize=18;container=1;dropTarget=1;recursiveResize=0;" vertex="1" parent="511">
                    <mxGeometry x="105" y="30" width="80" height="80" as="geometry"/>
                </mxCell>
                <mxCell id="513" value="Mesh" style="rounded=1;whiteSpace=wrap;html=1;verticalAlign=middle;align=center;fontSize=18;container=1;dropTarget=1;recursiveResize=0;" vertex="1" parent="511">
                    <mxGeometry x="10" y="30" width="80" height="80" as="geometry"/>
                </mxCell>
                <mxCell id="514" value="&lt;font style=&quot;font-size: 29px;&quot;&gt;...&lt;/font&gt;" style="rounded=1;whiteSpace=wrap;html=1;verticalAlign=bottom;align=center;fontSize=18;container=1;dropTarget=1;recursiveResize=0;" vertex="1" parent="511">
                    <mxGeometry x="200" y="30" width="80" height="80" as="geometry"/>
                </mxCell>
                <mxCell id="515" value="Run-&amp;gt; 1 times" style="rounded=1;whiteSpace=wrap;html=1;verticalAlign=top;align=center;fontSize=18;fillColor=#1ba1e2;fontColor=#ffffff;strokeColor=#006EAF;container=1;dropTarget=1;recursiveResize=0;" vertex="1" parent="1">
                    <mxGeometry x="7990" y="-3260" width="140" height="40" as="geometry"/>
                </mxCell>
                <mxCell id="516" value="EventListeners Buffer" style="rounded=1;whiteSpace=wrap;html=1;verticalAlign=top;align=center;fontSize=18;fillColor=#0050ef;fontColor=#ffffff;strokeColor=#001DBC;container=1;dropTarget=1;recursiveResize=0;" vertex="1" parent="1">
                    <mxGeometry x="7900" y="-3200" width="150" height="100" as="geometry"/>
                </mxCell>
                <mxCell id="517" value="Event" style="rounded=1;whiteSpace=wrap;html=1;verticalAlign=top;align=center;fontSize=18;fillColor=#d80073;fontColor=#ffffff;strokeColor=#A50040;container=1;dropTarget=1;recursiveResize=0;" vertex="1" parent="516">
                    <mxGeometry x="20" y="60" width="110" height="30" as="geometry"/>
                </mxCell>
                <mxCell id="518" value="EventListeners Buffer" style="rounded=1;whiteSpace=wrap;html=1;verticalAlign=top;align=center;fontSize=18;fillColor=#fa6800;fontColor=#000000;strokeColor=#C73500;container=1;dropTarget=1;recursiveResize=0;" vertex="1" parent="1">
                    <mxGeometry x="8310" y="-3123" width="150" height="140" as="geometry"/>
                </mxCell>
                <mxCell id="519" value="Event" style="rounded=1;whiteSpace=wrap;html=1;verticalAlign=top;align=center;fontSize=18;fillColor=#d80073;fontColor=#ffffff;strokeColor=#A50040;container=1;dropTarget=1;recursiveResize=0;" vertex="1" parent="518">
                    <mxGeometry x="20" y="60" width="110" height="30" as="geometry"/>
                </mxCell>
                <mxCell id="520" value="Event" style="rounded=1;whiteSpace=wrap;html=1;verticalAlign=top;align=center;fontSize=18;fillColor=#d80073;fontColor=#ffffff;strokeColor=#A50040;container=1;dropTarget=1;recursiveResize=0;" vertex="1" parent="518">
                    <mxGeometry x="20" y="100" width="110" height="30" as="geometry"/>
                </mxCell>
                <mxCell id="521" value="EventListeners Buffer" style="rounded=1;whiteSpace=wrap;html=1;verticalAlign=top;align=center;fontSize=18;fillColor=#d80073;fontColor=#ffffff;strokeColor=#A50040;container=1;dropTarget=1;recursiveResize=0;" vertex="1" parent="1">
                    <mxGeometry x="8760" y="-3138" width="150" height="140" as="geometry"/>
                </mxCell>
                <mxCell id="522" value="Events * 100" style="rounded=1;whiteSpace=wrap;html=1;verticalAlign=top;align=center;fontSize=18;fillColor=#d80073;fontColor=#ffffff;strokeColor=#A50040;container=1;dropTarget=1;recursiveResize=0;" vertex="1" parent="521">
                    <mxGeometry x="20" y="60" width="110" height="30" as="geometry"/>
                </mxCell>
                <mxCell id="523" value="Events * 100" style="rounded=1;whiteSpace=wrap;html=1;verticalAlign=top;align=center;fontSize=18;fillColor=#d80073;fontColor=#ffffff;strokeColor=#A50040;container=1;dropTarget=1;recursiveResize=0;" vertex="1" parent="521">
                    <mxGeometry x="20" y="100" width="110" height="30" as="geometry"/>
                </mxCell>
                <mxCell id="524" style="edgeStyle=none;html=1;exitX=1;exitY=0.5;exitDx=0;exitDy=0;entryX=0;entryY=0;entryDx=0;entryDy=0;dashed=1;strokeColor=#FFFFFF;strokeWidth=4;" edge="1" source="525" target="518" parent="1">
                    <mxGeometry relative="1" as="geometry"/>
                </mxCell>
                <mxCell id="525" value="&lt;span style=&quot;font-size: 18px;&quot;&gt;If hover&lt;/span&gt;" style="ellipse;whiteSpace=wrap;html=1;fillColor=#0050ef;fontColor=#ffffff;strokeColor=#001DBC;" vertex="1" parent="1">
                    <mxGeometry x="8100" y="-3163" width="120" height="80" as="geometry"/>
                </mxCell>
                <mxCell id="526" style="edgeStyle=none;html=1;exitX=1;exitY=0.5;exitDx=0;exitDy=0;entryX=0;entryY=0.5;entryDx=0;entryDy=0;dashed=1;strokeColor=#FFFFFF;strokeWidth=4;" edge="1" source="517" target="525" parent="1">
                    <mxGeometry relative="1" as="geometry"/>
                </mxCell>
                <mxCell id="527" style="edgeStyle=none;html=1;exitX=1;exitY=0.5;exitDx=0;exitDy=0;entryX=0;entryY=0;entryDx=0;entryDy=0;dashed=1;strokeColor=#FFFFFF;strokeWidth=4;fontColor=#FFFFFF;" edge="1" source="528" target="521" parent="1">
                    <mxGeometry relative="1" as="geometry"/>
                </mxCell>
                <mxCell id="528" value="&lt;span style=&quot;font-size: 18px;&quot;&gt;If hover&lt;/span&gt;" style="ellipse;whiteSpace=wrap;html=1;fillColor=#fa6800;fontColor=#FFFFFF;strokeColor=#C73500;" vertex="1" parent="1">
                    <mxGeometry x="8540" y="-3140" width="120" height="80" as="geometry"/>
                </mxCell>
                <mxCell id="529" style="edgeStyle=none;html=1;exitX=1;exitY=0.5;exitDx=0;exitDy=0;entryX=0;entryY=0;entryDx=0;entryDy=0;dashed=1;strokeColor=#FFFFFF;strokeWidth=4;fontColor=#FFFFFF;" edge="1" source="530" target="533" parent="1">
                    <mxGeometry relative="1" as="geometry"/>
                </mxCell>
                <mxCell id="530" value="&lt;span style=&quot;font-size: 18px;&quot;&gt;If hover&lt;/span&gt;" style="ellipse;whiteSpace=wrap;html=1;fillColor=#fa6800;fontColor=#FFFFFF;strokeColor=#C73500;" vertex="1" parent="1">
                    <mxGeometry x="8540" y="-3023" width="120" height="80" as="geometry"/>
                </mxCell>
                <mxCell id="531" style="edgeStyle=none;html=1;exitX=1;exitY=0.5;exitDx=0;exitDy=0;entryX=0;entryY=0.5;entryDx=0;entryDy=0;dashed=1;strokeColor=#FFFFFF;strokeWidth=4;" edge="1" source="519" target="528" parent="1">
                    <mxGeometry relative="1" as="geometry"/>
                </mxCell>
                <mxCell id="532" style="edgeStyle=none;html=1;exitX=1;exitY=0.5;exitDx=0;exitDy=0;entryX=0;entryY=0.5;entryDx=0;entryDy=0;dashed=1;strokeColor=#FFFFFF;strokeWidth=4;" edge="1" source="520" target="530" parent="1">
                    <mxGeometry relative="1" as="geometry"/>
                </mxCell>
                <mxCell id="533" value="EventListeners Buffer" style="rounded=1;whiteSpace=wrap;html=1;verticalAlign=top;align=center;fontSize=18;fillColor=#d80073;fontColor=#ffffff;strokeColor=#A50040;container=1;dropTarget=1;recursiveResize=0;" vertex="1" parent="1">
                    <mxGeometry x="8760" y="-2910" width="150" height="140" as="geometry"/>
                </mxCell>
                <mxCell id="534" value="Events * 100" style="rounded=1;whiteSpace=wrap;html=1;verticalAlign=top;align=center;fontSize=18;fillColor=#d80073;fontColor=#ffffff;strokeColor=#A50040;container=1;dropTarget=1;recursiveResize=0;" vertex="1" parent="533">
                    <mxGeometry x="20" y="60" width="110" height="30" as="geometry"/>
                </mxCell>
                <mxCell id="535" value="Events * 100" style="rounded=1;whiteSpace=wrap;html=1;verticalAlign=top;align=center;fontSize=18;fillColor=#d80073;fontColor=#ffffff;strokeColor=#A50040;container=1;dropTarget=1;recursiveResize=0;" vertex="1" parent="533">
                    <mxGeometry x="20" y="100" width="110" height="30" as="geometry"/>
                </mxCell>
                <mxCell id="536" value="&lt;span style=&quot;font-size: 18px;&quot;&gt;100&lt;/span&gt;" style="ellipse;whiteSpace=wrap;html=1;fillColor=#000000;fontColor=#FFFFFF;strokeColor=#4D4D4D;" vertex="1" parent="1">
                    <mxGeometry x="9010" y="-3140" width="120" height="80" as="geometry"/>
                </mxCell>
                <mxCell id="537" value="&lt;span style=&quot;font-size: 18px;&quot;&gt;100&lt;/span&gt;" style="ellipse;whiteSpace=wrap;html=1;fillColor=#000000;fontColor=#FFFFFF;strokeColor=#4D4D4D;" vertex="1" parent="1">
                    <mxGeometry x="9010" y="-3050" width="120" height="80" as="geometry"/>
                </mxCell>
                <mxCell id="538" value="&lt;span style=&quot;font-size: 18px;&quot;&gt;100&lt;/span&gt;" style="ellipse;whiteSpace=wrap;html=1;fillColor=#000000;fontColor=#FFFFFF;strokeColor=#4D4D4D;" vertex="1" parent="1">
                    <mxGeometry x="9010" y="-2899" width="120" height="80" as="geometry"/>
                </mxCell>
                <mxCell id="539" value="&lt;span style=&quot;font-size: 18px;&quot;&gt;100&lt;/span&gt;" style="ellipse;whiteSpace=wrap;html=1;fillColor=#000000;fontColor=#FFFFFF;strokeColor=#4D4D4D;" vertex="1" parent="1">
                    <mxGeometry x="9010" y="-2809" width="120" height="80" as="geometry"/>
                </mxCell>
                <mxCell id="540" style="edgeStyle=none;html=1;exitX=1;exitY=0.5;exitDx=0;exitDy=0;entryX=0;entryY=0.5;entryDx=0;entryDy=0;dashed=1;strokeColor=#000000;strokeWidth=4;fontColor=#FFFFFF;" edge="1" source="522" target="536" parent="1">
                    <mxGeometry relative="1" as="geometry"/>
                </mxCell>
                <mxCell id="541" style="edgeStyle=none;html=1;exitX=1;exitY=0.5;exitDx=0;exitDy=0;entryX=0;entryY=0.5;entryDx=0;entryDy=0;dashed=1;strokeColor=#000000;strokeWidth=4;fontColor=#FFFFFF;" edge="1" source="523" target="537" parent="1">
                    <mxGeometry relative="1" as="geometry"/>
                </mxCell>
                <mxCell id="542" style="edgeStyle=none;html=1;exitX=1;exitY=0.5;exitDx=0;exitDy=0;entryX=0;entryY=0.5;entryDx=0;entryDy=0;dashed=1;strokeColor=#000000;strokeWidth=4;fontColor=#FFFFFF;" edge="1" source="534" target="538" parent="1">
                    <mxGeometry relative="1" as="geometry"/>
                </mxCell>
                <mxCell id="543" style="edgeStyle=none;html=1;exitX=1;exitY=0.5;exitDx=0;exitDy=0;entryX=0;entryY=0.5;entryDx=0;entryDy=0;dashed=1;strokeColor=#000000;strokeWidth=4;fontColor=#FFFFFF;" edge="1" source="535" target="539" parent="1">
                    <mxGeometry relative="1" as="geometry"/>
                </mxCell>
                <mxCell id="544" value="Run-&amp;gt; 2 times" style="rounded=1;whiteSpace=wrap;html=1;verticalAlign=top;align=center;fontSize=18;fillColor=#1ba1e2;fontColor=#ffffff;strokeColor=#006EAF;container=1;dropTarget=1;recursiveResize=0;" vertex="1" parent="1">
                    <mxGeometry x="8315" y="-3203" width="140" height="40" as="geometry"/>
                </mxCell>
                <mxCell id="545" value="Run-&amp;gt; 2 times" style="rounded=1;whiteSpace=wrap;html=1;verticalAlign=top;align=center;fontSize=18;fillColor=#1ba1e2;fontColor=#ffffff;strokeColor=#006EAF;container=1;dropTarget=1;recursiveResize=0;" vertex="1" parent="1">
                    <mxGeometry x="8770" y="-3210" width="140" height="40" as="geometry"/>
                </mxCell>
                <mxCell id="546" value="Run-&amp;gt; 2 times" style="rounded=1;whiteSpace=wrap;html=1;verticalAlign=top;align=center;fontSize=18;fillColor=#1ba1e2;fontColor=#ffffff;strokeColor=#006EAF;container=1;dropTarget=1;recursiveResize=0;" vertex="1" parent="1">
                    <mxGeometry x="8770" y="-2970" width="140" height="40" as="geometry"/>
                </mxCell>
                <mxCell id="548" value="Run-&amp;gt; 2 times" style="rounded=1;whiteSpace=wrap;html=1;verticalAlign=top;align=center;fontSize=18;fillColor=#1ba1e2;fontColor=#ffffff;strokeColor=#006EAF;container=1;dropTarget=1;recursiveResize=0;" vertex="1" parent="1">
                    <mxGeometry x="7250" y="-3210" width="140" height="40" as="geometry"/>
                </mxCell>
                <mxCell id="549" value="Run-&amp;gt; 2 times" style="rounded=1;whiteSpace=wrap;html=1;verticalAlign=top;align=center;fontSize=18;fillColor=#1ba1e2;fontColor=#ffffff;strokeColor=#006EAF;container=1;dropTarget=1;recursiveResize=0;" vertex="1" parent="1">
                    <mxGeometry x="7250" y="-2950" width="140" height="40" as="geometry"/>
                </mxCell>
                <mxCell id="550" value="Total worst:&lt;br&gt;1+2+2+2 times" style="rounded=1;whiteSpace=wrap;html=1;verticalAlign=top;align=center;fontSize=18;fillColor=#1ba1e2;fontColor=#ffffff;strokeColor=#006EAF;container=1;dropTarget=1;recursiveResize=0;" vertex="1" parent="1">
                    <mxGeometry x="7430" y="-3260" width="140" height="40" as="geometry"/>
                </mxCell>
            </root>
        </mxGraphModel>
    </diagram>
</mxfile>